<svg height="720" style="margin: auto; height: 100%;" viewBox="0,0,1280,720" width="1280" xmlns="http://www.w3.org/2000/svg"><g fill="black" stroke-color="black" stroke="0"><rect height="352.4135732001019" width="6.4" x="0" y="7.586426799898106"></rect><rect height="239.68395186010054" width="6.4" x="6.4" y="360"></rect><rect height="282.22284240174156" width="6.4" x="12.8" y="77.77715759825844"></rect><rect height="127.70420667642813" width="6.4" x="19.2" y="232.29579332357187"></rect><rect height="45.817618915855256" width="6.4" x="25.6" y="314.18238108414477"></rect><rect height="265.5723026636851" width="6.4" x="32" y="94.4276973363149"></rect><rect height="93.53495940343907" width="6.4" x="38.4" y="360"></rect><rect height="16.19677226028896" width="6.4" x="44.8" y="343.803227739711"></rect><rect height="360.0" width="6.4" x="51.2" y="0.0"></rect><rect height="230.43792580053577" width="6.4" x="57.6" y="360"></rect><rect height="11.737548790652218" width="6.4" x="64" y="348.2624512093478"></rect><rect height="72.3072538274092" width="6.4" x="70.4" y="360"></rect><rect height="85.90040257951891" width="6.4" x="76.8" y="360"></rect><rect height="336.0353911718811" width="6.4" x="83.2" y="23.964608828118912"></rect><rect height="240.29305939236568" width="6.4" x="89.6" y="119.70694060763432"></rect><rect height="277.2156566895234" width="6.4" x="96" y="82.78434331047657"></rect><rect height="163.751138815278" width="6.4" x="102.4" y="196.248861184722"></rect><rect height="266.8923181942838" width="6.4" x="108.8" y="360"></rect><rect height="323.29634219748505" width="6.4" x="115.2" y="36.703657802514954"></rect><rect height="123.54749036356239" width="6.4" x="121.6" y="236.4525096364376"></rect><rect height="270.6394211156643" width="6.4" x="128" y="360"></rect><rect height="114.66311000477123" width="6.4" x="134.4" y="360"></rect><rect height="121.50746245808696" width="6.4" x="140.8" y="360"></rect><rect height="189.2452237922559" width="6.4" x="147.2" y="170.7547762077441"></rect><rect height="331.5721767007098" width="6.4" x="153.6" y="360"></rect><rect height="252.6930698208424" width="6.4" x="160" y="360"></rect><rect height="287.93452059675593" width="6.4" x="166.4" y="72.06547940324407"></rect><rect height="335.2733501302279" width="6.4" x="172.8" y="24.726649869772075"></rect><rect height="250.5749194782387" width="6.4" x="179.2" y="360"></rect><rect height="202.94487580945452" width="6.4" x="185.6" y="157.05512419054548"></rect><rect height="207.98780492627955" width="6.4" x="192" y="360"></rect><rect height="23.154918039082116" width="6.4" x="198.4" y="360"></rect><rect height="274.2551352811818" width="6.4" x="204.8" y="360"></rect><rect height="208.68603910397366" width="6.4" x="211.2" y="151.31396089602634"></rect><rect height="92.87655296358618" width="6.4" x="217.6" y="360"></rect><rect height="61.23872342645462" width="6.4" x="224" y="298.7612765735454"></rect><rect height="154.55813871675352" width="6.4" x="230.4" y="205.44186128324648"></rect><rect height="160.22429312403335" width="6.4" x="236.8" y="199.77570687596665"></rect><rect height="77.69136783425873" width="6.4" x="243.2" y="282.3086321657413"></rect><rect height="159.26674150937484" width="6.4" x="249.6" y="200.73325849062516"></rect><rect height="123.92919455990545" width="6.4" x="256" y="236.07080544009455"></rect><rect height="241.13679128248916" width="6.4" x="262.4" y="360"></rect><rect height="163.21818015040256" width="6.4" x="268.8" y="196.78181984959744"></rect><rect height="196.2660461827617" width="6.4" x="275.2" y="360"></rect><rect height="70.51564250455681" width="6.4" x="281.6" y="360"></rect><rect height="227.57018319874655" width="6.4" x="288" y="132.42981680125345"></rect><rect height="161.1370452791855" width="6.4" x="294.4" y="360"></rect><rect height="283.30928804352925" width="6.4" x="300.8" y="360"></rect><rect height="31.873999533091954" width="6.4" x="307.2" y="360"></rect><rect height="175.31762358525754" width="6.4" x="313.6" y="184.68237641474246"></rect><rect height="120.66275570583953" width="6.4" x="320" y="360"></rect><rect height="38.590784934268534" width="6.4" x="326.4" y="360"></rect><rect height="178.97507005757993" width="6.4" x="332.8" y="360"></rect><rect height="90.12786620229296" width="6.4" x="339.2" y="269.872133797707"></rect><rect height="183.5811855931876" width="6.4" x="345.6" y="360"></rect><rect height="312.85403700443067" width="6.4" x="352" y="360"></rect><rect height="277.4290653147702" width="6.4" x="358.4" y="360"></rect><rect height="26.00456969827582" width="6.4" x="364.8" y="333.9954303017242"></rect><rect height="54.66083419379789" width="6.4" x="371.2" y="305.3391658062021"></rect><rect height="290.38322186083525" width="6.4" x="377.6" y="360"></rect><rect height="275.609198911016" width="6.4" x="384" y="360"></rect><rect height="235.32828937561797" width="6.4" x="390.4" y="124.67171062438203"></rect><rect height="150.1670266514857" width="6.4" x="396.8" y="209.8329733485143"></rect><rect height="267.8370591432885" width="6.4" x="403.2" y="360"></rect><rect height="41.78558304561086" width="6.4" x="409.6" y="318.21441695438915"></rect><rect height="162.26783453430048" width="6.4" x="416" y="197.73216546569952"></rect><rect height="142.26581706828273" width="6.4" x="422.4" y="360"></rect><rect height="288.8847422576553" width="6.4" x="428.8" y="360"></rect><rect height="232.11461477942504" width="6.4" x="435.2" y="360"></rect><rect height="49.707115229371745" width="6.4" x="441.6" y="310.29288477062823"></rect><rect height="243.20470463509702" width="6.4" x="448" y="116.79529536490298"></rect><rect height="108.98023556793427" width="6.4" x="454.4" y="360"></rect><rect height="95.42032674064728" width="6.4" x="460.8" y="360"></rect><rect height="345.81763889254665" width="6.4" x="467.2" y="14.182361107453346"></rect><rect height="348.5385159055571" width="6.4" x="473.6" y="11.46148409444288"></rect><rect height="291.70876822376" width="6.4" x="480" y="360"></rect><rect height="133.19417796246086" width="6.4" x="486.4" y="226.80582203753914"></rect><rect height="276.00720073282645" width="6.4" x="492.8" y="83.99279926717355"></rect><rect height="44.815475610891504" width="6.4" x="499.2" y="360"></rect><rect height="254.2277990545769" width="6.4" x="505.6" y="360"></rect><rect height="347.98671984322567" width="6.4" x="512" y="12.013280156774329"></rect><rect height="355.62876043528996" width="6.4" x="518.4" y="4.371239564710038"></rect><rect height="248.40257716900084" width="6.4" x="524.8" y="360"></rect><rect height="244.1315827351278" width="6.4" x="531.2" y="115.86841726487219"></rect><rect height="126.94499632364112" width="6.4" x="537.6" y="360"></rect><rect height="154.19546659004982" width="6.4" x="544" y="360"></rect><rect height="89.23961890906685" width="6.4" x="550.4" y="270.76038109093315"></rect><rect height="349.7591231041942" width="6.4" x="556.8" y="360"></rect><rect height="100.58987638362085" width="6.4" x="563.2" y="259.41012361637917"></rect><rect height="356.41905376842493" width="6.4" x="569.6" y="360"></rect><rect height="314.3835762759254" width="6.4" x="576" y="45.61642372407459"></rect><rect height="76.57978236910338" width="6.4" x="582.4" y="360"></rect><rect height="212.71929659404566" width="6.4" x="588.8" y="147.28070340595434"></rect><rect height="343.43274800831813" width="6.4" x="595.2" y="16.56725199168187"></rect><rect height="317.489730221747" width="6.4" x="601.6" y="42.51026977825302"></rect><rect height="208.64831446697428" width="6.4" x="608" y="151.35168553302572"></rect><rect height="138.40251793244087" width="6.4" x="614.4" y="360"></rect><rect height="123.2632585802428" width="6.4" x="620.8" y="360"></rect><rect height="124.06050629954193" width="6.4" x="627.2" y="235.93949370045806"></rect><rect height="16.378890521710982" width="6.4" x="633.6" y="360"></rect><rect height="14.145060862377804" width="6.4" x="640" y="360"></rect><rect height="170.87628724464838" width="6.4" x="646.4" y="360"></rect><rect height="76.57903831692306" width="6.4" x="652.8" y="283.42096168307694"></rect><rect height="27.059278398626358" width="6.4" x="659.2" y="360"></rect><rect height="276.4668011581788" width="6.4" x="665.6" y="360"></rect><rect height="249.06029759346168" width="6.4" x="672" y="360"></rect><rect height="354.5794093043224" width="6.4" x="678.4" y="360"></rect><rect height="20.235556345399733" width="6.4" x="684.8" y="339.76444365460026"></rect><rect height="138.82932748338908" width="6.4" x="691.2" y="360"></rect><rect height="273.62781561697557" width="6.4" x="697.6" y="360"></rect><rect height="217.85037219249713" width="6.4" x="704" y="142.14962780750287"></rect><rect height="155.6300316019037" width="6.4" x="710.4" y="204.3699683980963"></rect><rect height="359.48781898095655" width="6.4" x="716.8" y="0.512181019043453"></rect><rect height="254.59160863772357" width="6.4" x="723.2" y="360"></rect><rect height="316.55612189977427" width="6.4" x="729.6" y="43.44387810022573"></rect><rect height="121.03906382781814" width="6.4" x="736" y="360"></rect><rect height="232.45263547250056" width="6.4" x="742.4" y="360"></rect><rect height="344.60700923841677" width="6.4" x="748.8" y="360"></rect><rect height="226.2634806473631" width="6.4" x="755.2" y="360"></rect><rect height="112.86430501699014" width="6.4" x="761.6" y="247.13569498300984"></rect><rect height="39.483539607934254" width="6.4" x="768" y="320.51646039206577"></rect><rect height="77.59659516180942" width="6.4" x="774.4" y="282.40340483819057"></rect><rect height="103.15666458865635" width="6.4" x="780.8" y="256.8433354113437"></rect><rect height="153.23868785908112" width="6.4" x="787.2" y="360"></rect><rect height="48.54360290083889" width="6.4" x="793.6" y="311.4563970991611"></rect><rect height="45.82357223734432" width="6.4" x="800" y="360"></rect><rect height="322.610026041965" width="6.4" x="806.4" y="360"></rect><rect height="38.75230343500162" width="6.4" x="812.8" y="360"></rect><rect height="101.51021284361659" width="6.4" x="819.2" y="360"></rect><rect height="200.60118360271727" width="6.4" x="825.6" y="360"></rect><rect height="259.8745022588326" width="6.4" x="832" y="360"></rect><rect height="101.7609076923871" width="6.4" x="838.4" y="258.2390923076129"></rect><rect height="237.97968618369723" width="6.4" x="844.8" y="360"></rect><rect height="100.79036259223204" width="6.4" x="851.2" y="259.20963740776796"></rect><rect height="230.44587535549937" width="6.4" x="857.6" y="129.55412464450063"></rect><rect height="208.53085062670152" width="6.4" x="864" y="151.46914937329848"></rect><rect height="207.95493933845333" width="6.4" x="870.4" y="360"></rect><rect height="111.48244106988673" width="6.4" x="876.8" y="248.51755893011327"></rect><rect height="300.55955806638445" width="6.4" x="883.2" y="360"></rect><rect height="158.60689632355732" width="6.4" x="889.6" y="360"></rect><rect height="133.523387293746" width="6.4" x="896" y="226.476612706254"></rect><rect height="167.291545345859" width="6.4" x="902.4" y="192.708454654141"></rect><rect height="192.4374975132754" width="6.4" x="908.8" y="167.5625024867246"></rect><rect height="11.360791663577706" width="6.4" x="915.2" y="360"></rect><rect height="315.74746468084896" width="6.4" x="921.6" y="360"></rect><rect height="19.31493758743893" width="6.4" x="928" y="340.6850624125611"></rect><rect height="188.64000871018428" width="6.4" x="934.4" y="360"></rect><rect height="291.5813333763745" width="6.4" x="940.8" y="68.41866662362548"></rect><rect height="266.8802573364088" width="6.4" x="947.2" y="360"></rect><rect height="355.6930362565633" width="6.4" x="953.6" y="360"></rect><rect height="219.55089535460948" width="6.4" x="960" y="360"></rect><rect height="4.512944419836737" width="6.4" x="966.4" y="360"></rect><rect height="73.97371589160197" width="6.4" x="972.8" y="286.02628410839804"></rect><rect height="18.810289963072847" width="6.4" x="979.2" y="341.1897100369272"></rect><rect height="45.8628243446889" width="6.4" x="985.6" y="360"></rect><rect height="125.87849223271088" width="6.4" x="992" y="234.12150776728913"></rect><rect height="166.4413623515805" width="6.4" x="998.4" y="360"></rect><rect height="314.30727228211043" width="6.4" x="1004.8" y="360"></rect><rect height="41.16463738790126" width="6.4" x="1011.2" y="360"></rect><rect height="184.4614877131615" width="6.4" x="1017.6" y="360"></rect><rect height="189.66070085461274" width="6.4" x="1024" y="170.33929914538726"></rect><rect height="133.57165019491939" width="6.4" x="1030.4" y="226.42834980508061"></rect><rect height="313.0744229366043" width="6.4" x="1036.8" y="360"></rect><rect height="108.48405777082516" width="6.4" x="1043.2" y="251.51594222917484"></rect><rect height="326.5952685316069" width="6.4" x="1049.6" y="360"></rect><rect height="130.5341881670608" width="6.4" x="1056" y="360"></rect><rect height="52.7262062413182" width="6.4" x="1062.4" y="360"></rect><rect height="282.9346420997757" width="6.4" x="1068.8" y="360"></rect><rect height="69.79477871317202" width="6.4" x="1075.2" y="290.20522128682796"></rect><rect height="295.6685614971727" width="6.4" x="1081.6" y="360"></rect><rect height="74.8215678825984" width="6.4" x="1088" y="360"></rect><rect height="85.29001015805345" width="6.4" x="1094.4" y="274.70998984194654"></rect><rect height="277.303836885133" width="6.4" x="1100.8" y="360"></rect><rect height="208.55503483881319" width="6.4" x="1107.2" y="151.44496516118681"></rect><rect height="100.03286235537556" width="6.4" x="1113.6" y="259.9671376446245"></rect><rect height="161.0717391983157" width="6.4" x="1120" y="360"></rect><rect height="145.40388821644987" width="6.4" x="1126.4" y="360"></rect><rect height="25.619316930998167" width="6.4" x="1132.8" y="334.38068306900186"></rect><rect height="150.91307914649255" width="6.4" x="1139.2" y="360"></rect><rect height="267.9009600568202" width="6.4" x="1145.6" y="360"></rect><rect height="241.46010907893466" width="6.4" x="1152" y="118.53989092106534"></rect><rect height="132.1148747480129" width="6.4" x="1158.4" y="360"></rect><rect height="194.21577753460198" width="6.4" x="1164.8" y="165.78422246539802"></rect><rect height="9.21788467752179" width="6.4" x="1171.2" y="360"></rect><rect height="116.2564617949813" width="6.4" x="1177.6" y="360"></rect><rect height="295.29568692420884" width="6.4" x="1184" y="64.70431307579116"></rect><rect height="288.9559985952454" width="6.4" x="1190.4" y="360"></rect><rect height="236.58300459751894" width="6.4" x="1196.8" y="123.41699540248106"></rect><rect height="103.1408550757532" width="6.4" x="1203.2" y="360"></rect><rect height="78.47474528563374" width="6.4" x="1209.6" y="281.52525471436627"></rect><rect height="80.45583411600322" width="6.4" x="1216" y="360"></rect><rect height="146.41867946721175" width="6.4" x="1222.4" y="360"></rect><rect height="330.5451067660167" width="6.4" x="1228.8" y="29.454893233983285"></rect><rect height="137.51247358574915" width="6.4" x="1235.2" y="360"></rect><rect height="210.45129701021693" width="6.4" x="1241.6" y="149.54870298978307"></rect><rect height="53.11236948821524" width="6.4" x="1248" y="360"></rect><rect height="105.53807495475611" width="6.4" x="1254.4" y="254.4619250452439"></rect><rect height="182.8336206133266" width="6.4" x="1260.8" y="177.1663793866734"></rect><rect height="105.23563660078085" width="6.4" x="1267.2" y="360"></rect><rect height="270.05697082774725" width="6.4" x="1273.6" y="89.94302917225275"></rect></g><g fill="green" opacity="0.5" stroke-color="black" stroke="0"><rect height="4.152798527671143" width="64" x="0" y="355.84720147232883"></rect><rect height="260.59202152545123" width="64" x="64" y="360"></rect><rect height="102.7200064235943" width="64" x="128" y="257.2799935764057"></rect><rect height="284.7890162175796" width="64" x="192" y="75.21098378242039"></rect><rect height="54.079312699408334" width="64" x="256" y="305.9206873005917"></rect><rect height="320.407443163433" width="64" x="320" y="360"></rect><rect height="300.4534650713749" width="64" x="384" y="59.54653492862508"></rect><rect height="10.13703669046324" width="64" x="448" y="349.8629633095368"></rect><rect height="116.16440002510528" width="64" x="512" y="360"></rect><rect height="333.62149158028734" width="64" x="576" y="26.37850841971266"></rect><rect height="333.2434696792032" width="64" x="640" y="26.7565303207968"></rect><rect height="13.139551715246617" width="64" x="704" y="346.8604482847534"></rect><rect height="85.19316360228862" width="64" x="768" y="360"></rect><rect height="85.8231184652889" width="64" x="832" y="274.17688153471113"></rect><rect height="47.27717565320375" width="64" x="896" y="360"></rect><rect height="147.953555633344" width="64" x="960" y="360"></rect><rect height="83.12121137402934" width="64" x="1024" y="360"></rect><rect height="360.0" width="64" x="1088" y="0.0"></rect><rect height="136.70199537422832" width="64" x="1152" y="223.29800462577168"></rect><rect height="45.56459503178028" width="64" x="1216" y="314.4354049682197"></rect></g></svg>