<svg height="720" style="margin: auto; height: 100%;" viewBox="0,0,1280,720" width="1280" xmlns="http://www.w3.org/2000/svg"><g fill="#777" stroke-color="black" stroke="0"><rect height="269.9167480059912" width="64" x="0" y="28.321674160076896"></rect><rect height="298.2384221660681" width="64" x="64" y="0.0"></rect><rect height="121.20145298451321" width="64" x="128" y="177.03696918155492"></rect><rect height="393.14075714121765" width="64" x="192" y="298.2384221660681"></rect><rect height="289.96184281551336" width="64" x="256" y="298.2384221660681"></rect><rect height="421.7615778339318" width="64" x="320" y="298.2384221660681"></rect><rect height="22.59092589035533" width="64" x="384" y="275.6474962757128"></rect><rect height="50.44563687703692" width="64" x="448" y="298.2384221660681"></rect><rect height="102.71034160447888" width="64" x="512" y="195.52808056158923"></rect><rect height="234.5485474844244" width="64" x="576" y="298.2384221660681"></rect><rect height="166.09713257913154" width="64" x="640" y="132.14128958693658"></rect><rect height="53.018266510890065" width="64" x="704" y="245.22015565517805"></rect><rect height="171.1433868539472" width="64" x="768" y="298.2384221660681"></rect><rect height="280.85678925282775" width="64" x="832" y="298.2384221660681"></rect><rect height="295.38674621609863" width="64" x="896" y="298.2384221660681"></rect><rect height="43.92936479174203" width="64" x="960" y="298.2384221660681"></rect><rect height="358.265002920901" width="64" x="1024" y="298.2384221660681"></rect><rect height="117.37568665359501" width="64" x="1088" y="298.2384221660681"></rect><rect height="328.3669714364177" width="64" x="1152" y="298.2384221660681"></rect><rect height="221.03702425465505" width="64" x="1216" y="298.2384221660681"></rect></g></svg>