<svg height="720" style="margin: auto; height: 100%;" viewBox="0,0,1280,720" width="1280" xmlns="http://www.w3.org/2000/svg"><g fill="#777" fille="black" stroke-color="black" stroke="0"><rect height="214.83692022509462" width="6.4" x="0" y="358.92132962465587"></rect><rect height="65.42877987361308" width="6.4" x="6.4" y="358.92132962465587"></rect><rect height="47.443109425441335" width="6.4" x="12.8" y="311.47822019921455"></rect><rect height="90.87794245030176" width="6.4" x="19.2" y="358.92132962465587"></rect><rect height="313.8812194390023" width="6.4" x="25.6" y="45.04011018565359"></rect><rect height="63.07116803214145" width="6.4" x="32" y="295.85016159251444"></rect><rect height="296.8077622380929" width="6.4" x="38.4" y="358.92132962465587"></rect><rect height="270.13570753811985" width="6.4" x="44.8" y="358.92132962465587"></rect><rect height="129.43557217973805" width="6.4" x="51.2" y="358.92132962465587"></rect><rect height="358.9213296246558" width="6.4" x="57.6" y="5.6843418860808015E-14"></rect><rect height="192.70128502776134" width="6.4" x="64" y="166.22004459689452"></rect><rect height="207.0213675948942" width="6.4" x="70.4" y="151.89996202976167"></rect><rect height="99.91844574558284" width="6.4" x="76.8" y="358.92132962465587"></rect><rect height="227.06001358933324" width="6.4" x="83.2" y="358.92132962465587"></rect><rect height="294.2148254337403" width="6.4" x="89.6" y="358.92132962465587"></rect><rect height="280.48233691436" width="6.4" x="96" y="78.43899271029585"></rect><rect height="217.42521642730296" width="6.4" x="102.4" y="358.92132962465587"></rect><rect height="135.1497180786952" width="6.4" x="108.8" y="223.77161154596067"></rect><rect height="152.02209834283423" width="6.4" x="115.2" y="206.89923128182164"></rect><rect height="168.54173800675795" width="6.4" x="121.6" y="190.37959161789792"></rect><rect height="148.57660495707512" width="6.4" x="128" y="358.92132962465587"></rect><rect height="266.3575493177606" width="6.4" x="134.4" y="358.92132962465587"></rect><rect height="79.54146992571899" width="6.4" x="140.8" y="358.92132962465587"></rect><rect height="276.4884185551153" width="6.4" x="147.2" y="82.43291106954058"></rect><rect height="322.9509408449259" width="6.4" x="153.6" y="358.92132962465587"></rect><rect height="226.29008564358824" width="6.4" x="160" y="132.63124398106763"></rect><rect height="333.9404325598896" width="6.4" x="166.4" y="358.92132962465587"></rect><rect height="361.07867037534413" width="6.4" x="172.8" y="358.92132962465587"></rect><rect height="151.065419617479" width="6.4" x="179.2" y="358.92132962465587"></rect><rect height="197.97815579168363" width="6.4" x="185.6" y="160.94317383297224"></rect><rect height="308.4061471736606" width="6.4" x="192" y="358.92132962465587"></rect><rect height="213.17524146492715" width="6.4" x="198.4" y="145.7460881597287"></rect><rect height="118.05853818244381" width="6.4" x="204.8" y="358.92132962465587"></rect><rect height="345.5705718238294" width="6.4" x="211.2" y="13.350757800826443"></rect><rect height="320.51315879268196" width="6.4" x="217.6" y="38.408170831973905"></rect><rect height="81.35909415076782" width="6.4" x="224" y="277.56223547388805"></rect><rect height="299.9202466513973" width="6.4" x="230.4" y="358.92132962465587"></rect><rect height="121.28158308432029" width="6.4" x="236.8" y="237.63974654033558"></rect><rect height="92.56522787372221" width="6.4" x="243.2" y="358.92132962465587"></rect><rect height="357.97704236483133" width="6.4" x="249.6" y="358.92132962465587"></rect><rect height="210.17589427379596" width="6.4" x="256" y="148.7454353508599"></rect><rect height="359.67582431568974" width="6.4" x="262.4" y="358.92132962465587"></rect><rect height="96.66396237611976" width="6.4" x="268.8" y="358.92132962465587"></rect><rect height="297.9268973193251" width="6.4" x="275.2" y="60.99443230533075"></rect><rect height="317.0375847224547" width="6.4" x="281.6" y="41.88374490220116"></rect><rect height="191.39689958874192" width="6.4" x="288" y="358.92132962465587"></rect><rect height="276.0275678010078" width="6.4" x="294.4" y="82.89376182364805"></rect><rect height="76.30986704592684" width="6.4" x="300.8" y="358.92132962465587"></rect><rect height="269.5957666877386" width="6.4" x="307.2" y="358.92132962465587"></rect><rect height="229.83403774189068" width="6.4" x="313.6" y="358.92132962465587"></rect><rect height="55.72136069834626" width="6.4" x="320" y="303.1999689263096"></rect><rect height="258.7808281479321" width="6.4" x="326.4" y="100.14050147672378"></rect><rect height="27.30971718605202" width="6.4" x="332.8" y="358.92132962465587"></rect><rect height="17.97545621978612" width="6.4" x="339.2" y="340.94587340486976"></rect><rect height="331.06394539841" width="6.4" x="345.6" y="358.92132962465587"></rect><rect height="58.07871810994472" width="6.4" x="352" y="358.92132962465587"></rect><rect height="75.75732090382947" width="6.4" x="358.4" y="283.1640087208264"></rect><rect height="3.541346300792635" width="6.4" x="364.8" y="358.92132962465587"></rect><rect height="68.5036325568929" width="6.4" x="371.2" y="358.92132962465587"></rect><rect height="167.7196365508714" width="6.4" x="377.6" y="191.20169307378447"></rect><rect height="134.087468552703" width="6.4" x="384" y="358.92132962465587"></rect><rect height="260.46487619995867" width="6.4" x="390.4" y="98.4564534246972"></rect><rect height="147.66195022009725" width="6.4" x="396.8" y="358.92132962465587"></rect><rect height="235.46098626342783" width="6.4" x="403.2" y="123.46034336122804"></rect><rect height="346.3446663591346" width="6.4" x="409.6" y="12.57666326552129"></rect><rect height="147.44312666950253" width="6.4" x="416" y="211.47820295515334"></rect><rect height="169.18342144187196" width="6.4" x="422.4" y="189.7379081827839"></rect><rect height="174.77906130975293" width="6.4" x="428.8" y="184.14226831490294"></rect><rect height="98.2253118922336" width="6.4" x="435.2" y="358.92132962465587"></rect><rect height="57.212837642820645" width="6.4" x="441.6" y="358.92132962465587"></rect><rect height="72.95656308981496" width="6.4" x="448" y="285.9647665348409"></rect><rect height="51.28708585521984" width="6.4" x="454.4" y="307.634243769436"></rect><rect height="80.80960951138051" width="6.4" x="460.8" y="278.11172011327534"></rect><rect height="10.042197628789298" width="6.4" x="467.2" y="358.92132962465587"></rect><rect height="333.7653725687288" width="6.4" x="473.6" y="358.92132962465587"></rect><rect height="189.01786185428597" width="6.4" x="480" y="358.92132962465587"></rect><rect height="195.65527380001188" width="6.4" x="486.4" y="358.92132962465587"></rect><rect height="337.29980155281845" width="6.4" x="492.8" y="358.92132962465587"></rect><rect height="166.04039445874048" width="6.4" x="499.2" y="358.92132962465587"></rect><rect height="242.0258347629436" width="6.4" x="505.6" y="116.89549486171228"></rect><rect height="162.85852607554625" width="6.4" x="512" y="196.06280354910962"></rect><rect height="350.88331629234034" width="6.4" x="518.4" y="358.92132962465587"></rect><rect height="315.1778876102986" width="6.4" x="524.8" y="358.92132962465587"></rect><rect height="21.706675251865168" width="6.4" x="531.2" y="337.2146543727907"></rect><rect height="137.0940610944193" width="6.4" x="537.6" y="358.92132962465587"></rect><rect height="148.40140654318446" width="6.4" x="544" y="210.5199230814714"></rect><rect height="137.49047499785556" width="6.4" x="550.4" y="358.92132962465587"></rect><rect height="230.84608391322539" width="6.4" x="556.8" y="358.92132962465587"></rect><rect height="325.5860996059016" width="6.4" x="563.2" y="358.92132962465587"></rect><rect height="105.81183331893025" width="6.4" x="569.6" y="253.1094963057256"></rect><rect height="312.9181273265335" width="6.4" x="576" y="46.003202298122346"></rect><rect height="4.827087686649737" width="6.4" x="582.4" y="358.92132962465587"></rect><rect height="137.8128859957601" width="6.4" x="588.8" y="221.10844362889577"></rect><rect height="134.4987289680184" width="6.4" x="595.2" y="224.42260065663746"></rect><rect height="140.43861363332005" width="6.4" x="601.6" y="218.48271599133582"></rect><rect height="179.05270768800486" width="6.4" x="608" y="358.92132962465587"></rect><rect height="78.7733035150043" width="6.4" x="614.4" y="358.92132962465587"></rect><rect height="86.6630970741589" width="6.4" x="620.8" y="272.258232550497"></rect><rect height="172.3104464057236" width="6.4" x="627.2" y="358.92132962465587"></rect><rect height="10.740402620407721" width="6.4" x="633.6" y="358.92132962465587"></rect><rect height="29.484731579148924" width="6.4" x="640" y="329.43659804550697"></rect><rect height="283.40432375153927" width="6.4" x="646.4" y="358.92132962465587"></rect><rect height="156.93593518021493" width="6.4" x="652.8" y="358.92132962465587"></rect><rect height="48.48988623862263" width="6.4" x="659.2" y="310.43144338603327"></rect><rect height="247.39566711229904" width="6.4" x="665.6" y="111.52566251235683"></rect><rect height="323.35277686426775" width="6.4" x="672" y="35.568552760388116"></rect><rect height="275.4671616786292" width="6.4" x="678.4" y="358.92132962465587"></rect><rect height="181.07575333830735" width="6.4" x="684.8" y="358.92132962465587"></rect><rect height="295.05108555281544" width="6.4" x="691.2" y="63.87024407184043"></rect><rect height="21.882792010793345" width="6.4" x="697.6" y="358.92132962465587"></rect><rect height="132.21860860738605" width="6.4" x="704" y="358.92132962465587"></rect><rect height="157.3956717858676" width="6.4" x="710.4" y="358.92132962465587"></rect><rect height="122.92157689224454" width="6.4" x="716.8" y="235.9997527324113"></rect><rect height="272.96095579889584" width="6.4" x="723.2" y="85.96037382576003"></rect><rect height="254.467464470278" width="6.4" x="729.6" y="104.45386515437787"></rect><rect height="225.07834921970922" width="6.4" x="736" y="133.84298040494664"></rect><rect height="358.727890398065" width="6.4" x="742.4" y="358.92132962465587"></rect><rect height="0.9295847924728511" width="6.4" x="748.8" y="357.99174483218303"></rect><rect height="126.31222172244158" width="6.4" x="755.2" y="232.6091079022143"></rect><rect height="346.04015840921505" width="6.4" x="761.6" y="358.92132962465587"></rect><rect height="276.57400903588973" width="6.4" x="768" y="358.92132962465587"></rect><rect height="86.40183777460368" width="6.4" x="774.4" y="272.5194918500522"></rect><rect height="267.8438564956034" width="6.4" x="780.8" y="358.92132962465587"></rect><rect height="45.485600132271486" width="6.4" x="787.2" y="313.4357294923844"></rect><rect height="74.67986280899414" width="6.4" x="793.6" y="358.92132962465587"></rect><rect height="207.02734651996664" width="6.4" x="800" y="358.92132962465587"></rect><rect height="115.0719171885996" width="6.4" x="806.4" y="358.92132962465587"></rect><rect height="288.17713076297025" width="6.4" x="812.8" y="358.92132962465587"></rect><rect height="90.9609160617402" width="6.4" x="819.2" y="267.9604135629157"></rect><rect height="204.80634834262563" width="6.4" x="825.6" y="358.92132962465587"></rect><rect height="196.86141284435266" width="6.4" x="832" y="162.0599167803032"></rect><rect height="333.1734768426276" width="6.4" x="838.4" y="358.92132962465587"></rect><rect height="144.9726367158793" width="6.4" x="844.8" y="213.94869290877656"></rect><rect height="254.484330169267" width="6.4" x="851.2" y="358.92132962465587"></rect><rect height="205.14304199768586" width="6.4" x="857.6" y="153.77828762697"></rect><rect height="194.5172499661485" width="6.4" x="864" y="164.40407965850736"></rect><rect height="198.53897846459486" width="6.4" x="870.4" y="358.92132962465587"></rect><rect height="176.91572635464905" width="6.4" x="876.8" y="182.00560327000682"></rect><rect height="256.3492381412957" width="6.4" x="883.2" y="358.92132962465587"></rect><rect height="303.8599275018644" width="6.4" x="889.6" y="358.92132962465587"></rect><rect height="128.42085176578252" width="6.4" x="896" y="230.50047785887335"></rect><rect height="277.23199012693027" width="6.4" x="902.4" y="358.92132962465587"></rect><rect height="246.32982218405638" width="6.4" x="908.8" y="358.92132962465587"></rect><rect height="154.9725437051724" width="6.4" x="915.2" y="358.92132962465587"></rect><rect height="273.29324971658986" width="6.4" x="921.6" y="358.92132962465587"></rect><rect height="196.18764544563084" width="6.4" x="928" y="358.92132962465587"></rect><rect height="188.53335890310373" width="6.4" x="934.4" y="358.92132962465587"></rect><rect height="99.70174153357816" width="6.4" x="940.8" y="358.92132962465587"></rect><rect height="259.79618039393085" width="6.4" x="947.2" y="99.12514923072501"></rect><rect height="343.5277732537961" width="6.4" x="953.6" y="15.393556370859756"></rect><rect height="49.66146573721781" width="6.4" x="960" y="309.2598638874381"></rect><rect height="343.10386986258743" width="6.4" x="966.4" y="15.817459762068438"></rect><rect height="145.21343632062926" width="6.4" x="972.8" y="213.7078933040266"></rect><rect height="337.57949479163307" width="6.4" x="979.2" y="21.3418348330228"></rect><rect height="142.69091644063826" width="6.4" x="985.6" y="216.2304131840176"></rect><rect height="22.86141826751623" width="6.4" x="992" y="336.05991135713964"></rect><rect height="313.0379197903797" width="6.4" x="998.4" y="358.92132962465587"></rect><rect height="217.27768188682057" width="6.4" x="1004.8" y="358.92132962465587"></rect><rect height="195.01898022184002" width="6.4" x="1011.2" y="163.90234940281584"></rect><rect height="32.10161464431767" width="6.4" x="1017.6" y="326.8197149803382"></rect><rect height="20.248124178695228" width="6.4" x="1024" y="358.92132962465587"></rect><rect height="268.53811047489904" width="6.4" x="1030.4" y="358.92132962465587"></rect><rect height="74.05677872987364" width="6.4" x="1036.8" y="358.92132962465587"></rect><rect height="75.71196458316093" width="6.4" x="1043.2" y="358.92132962465587"></rect><rect height="16.474991081505713" width="6.4" x="1049.6" y="358.92132962465587"></rect><rect height="124.46887622005143" width="6.4" x="1056" y="358.92132962465587"></rect><rect height="309.9754265543344" width="6.4" x="1062.4" y="358.92132962465587"></rect><rect height="120.69100042095546" width="6.4" x="1068.8" y="358.92132962465587"></rect><rect height="155.50743345789073" width="6.4" x="1075.2" y="203.41389616676514"></rect><rect height="246.0284516120996" width="6.4" x="1081.6" y="112.89287801255628"></rect><rect height="79.27560566281467" width="6.4" x="1088" y="358.92132962465587"></rect><rect height="292.81423838701323" width="6.4" x="1094.4" y="66.10709123764263"></rect><rect height="303.91461330096024" width="6.4" x="1100.8" y="358.92132962465587"></rect><rect height="8.612991410636404" width="6.4" x="1107.2" y="350.30833821401944"></rect><rect height="120.98226053159452" width="6.4" x="1113.6" y="358.92132962465587"></rect><rect height="162.49049520401567" width="6.4" x="1120" y="358.92132962465587"></rect><rect height="220.7315860405028" width="6.4" x="1126.4" y="138.18974358415306"></rect><rect height="283.2532161947602" width="6.4" x="1132.8" y="358.92132962465587"></rect><rect height="180.53214569182504" width="6.4" x="1139.2" y="358.92132962465587"></rect><rect height="285.879291438012" width="6.4" x="1145.6" y="73.04203818664388"></rect><rect height="143.88427553180597" width="6.4" x="1152" y="215.0370540928499"></rect><rect height="183.8100338529976" width="6.4" x="1158.4" y="175.11129577165826"></rect><rect height="179.67750253662808" width="6.4" x="1164.8" y="358.92132962465587"></rect><rect height="159.78641315981315" width="6.4" x="1171.2" y="199.13491646484272"></rect><rect height="1.2300483733765224" width="6.4" x="1177.6" y="358.92132962465587"></rect><rect height="141.6584907800691" width="6.4" x="1184" y="358.92132962465587"></rect><rect height="235.12287485396007" width="6.4" x="1190.4" y="358.92132962465587"></rect><rect height="228.02959483841346" width="6.4" x="1196.8" y="130.8917347862424"></rect><rect height="299.1843508522589" width="6.4" x="1203.2" y="59.73697877239698"></rect><rect height="65.59783554634967" width="6.4" x="1209.6" y="293.3234940783062"></rect><rect height="66.80049785098272" width="6.4" x="1216" y="358.92132962465587"></rect><rect height="45.41894141708579" width="6.4" x="1222.4" y="358.92132962465587"></rect><rect height="119.74289002006168" width="6.4" x="1228.8" y="239.1784396045942"></rect><rect height="317.97494349407964" width="6.4" x="1235.2" y="358.92132962465587"></rect><rect height="83.92029996110296" width="6.4" x="1241.6" y="358.92132962465587"></rect><rect height="294.6901912145108" width="6.4" x="1248" y="64.23113841014509"></rect><rect height="29.443367190224308" width="6.4" x="1254.4" y="329.47796243443156"></rect><rect height="169.74283076427227" width="6.4" x="1260.8" y="358.92132962465587"></rect><rect height="165.2118738930365" width="6.4" x="1267.2" y="193.70945573161936"></rect><rect height="69.66876924233263" width="6.4" x="1273.6" y="358.92132962465587"></rect></g><g fill="green" opacity="0.5" stroke-color="black" stroke="0"><rect height="246.274280017175" width="64" x="0" y="430.77714740157154"></rect><rect height="263.32821955701496" width="64" x="64" y="167.44892784455658"></rect><rect height="130.27944832999938" width="64" x="128" y="300.49769907157213"></rect><rect height="62.624936780229014" width="64" x="192" y="368.15221062134253"></rect><rect height="36.17503827938552" width="64" x="256" y="394.602109122186"></rect><rect height="160.83024821448228" width="64" x="320" y="269.94689918708923"></rect><rect height="154.23383570535626" width="64" x="384" y="430.77714740157154"></rect><rect height="245.0361324422918" width="64" x="448" y="430.77714740157154"></rect><rect height="157.28659284994225" width="64" x="512" y="430.77714740157154"></rect><rect height="289.22285259842846" width="64" x="576" y="430.77714740157154"></rect><rect height="430.7771474015716" width="64" x="640" y="-5.6843418860808015E-14"></rect><rect height="333.3010837240888" width="64" x="704" y="97.47606367748273"></rect><rect height="27.022384563746094" width="64" x="768" y="430.77714740157154"></rect><rect height="114.32310030402977" width="64" x="832" y="316.4540470975418"></rect><rect height="399.8922839187355" width="64" x="896" y="30.884863482836067"></rect><rect height="158.55287575698165" width="64" x="960" y="430.77714740157154"></rect><rect height="376.72851710202656" width="64" x="1024" y="54.04863029954498"></rect><rect height="59.25884468998288" width="64" x="1088" y="430.77714740157154"></rect><rect height="328.5777916046765" width="64" x="1152" y="102.19935579689502"></rect><rect height="81.74242815845544" width="64" x="1216" y="430.77714740157154"></rect></g></svg>