<svg height="720" style="margin: auto; height: 100%;" viewBox="0,0,1280,720" width="1280" xmlns="http://www.w3.org/2000/svg"><g fill="#777" stroke-color="black" stroke="0"><rect height="330.97018173390177" width="1.6" x="0" y="29.65501082080027"></rect><rect height="294.8398860859639" width="1.6" x="1.6" y="65.78530646873816"></rect><rect height="126.40912566487222" width="1.6" x="3.2" y="360.62519255470204"></rect><rect height="359.51197685718984" width="1.6" x="4.8" y="1.113215697512203"></rect><rect height="144.1127924302324" width="1.6" x="6.4" y="216.51240012446965"></rect><rect height="107.78296529438184" width="1.6" x="8" y="360.62519255470204"></rect><rect height="280.5423197426697" width="1.6" x="9.6" y="360.62519255470204"></rect><rect height="188.15591480703853" width="1.6" x="11.2" y="360.62519255470204"></rect><rect height="29.095335950454544" width="1.6" x="12.8" y="360.62519255470204"></rect><rect height="287.1398882633698" width="1.6" x="14.4" y="360.62519255470204"></rect><rect height="266.6607668155427" width="1.6" x="16" y="93.96442573915937"></rect><rect height="295.7891632385017" width="1.6" x="17.6" y="64.83602931620032"></rect><rect height="189.9348548596267" width="1.6" x="19.2" y="170.69033769507533"></rect><rect height="70.29232586247393" width="1.6" x="20.8" y="290.3328666922281"></rect><rect height="198.62952402706543" width="1.6" x="22.4" y="360.62519255470204"></rect><rect height="221.0885042533354" width="1.6" x="24" y="139.53668830136664"></rect><rect height="217.72295571673146" width="1.6" x="25.6" y="360.62519255470204"></rect><rect height="89.04390928006809" width="1.6" x="27.2" y="271.58128327463396"></rect><rect height="45.30887812905893" width="1.6" x="28.8" y="315.3163144256431"></rect><rect height="192.80756524334137" width="1.6" x="30.4" y="167.81762731136067"></rect><rect height="262.46040728208317" width="1.6" x="32" y="98.16478527261887"></rect><rect height="185.9675964067396" width="1.6" x="33.6" y="360.62519255470204"></rect><rect height="340.3661556787154" width="1.6" x="35.2" y="360.62519255470204"></rect><rect height="290.8350373290008" width="1.6" x="36.8" y="360.62519255470204"></rect><rect height="0.04245219026081607" width="1.6" x="38.4" y="360.58274036444124"></rect><rect height="88.97307327126154" width="1.6" x="40" y="360.62519255470204"></rect><rect height="342.70387522654215" width="1.6" x="41.6" y="17.921317328159887"></rect><rect height="113.39585222353087" width="1.6" x="43.2" y="247.22934033117116"></rect><rect height="254.4985393181207" width="1.6" x="44.8" y="360.62519255470204"></rect><rect height="191.6502351591325" width="1.6" x="46.4" y="168.97495739556953"></rect><rect height="283.1601351702986" width="1.6" x="48" y="360.62519255470204"></rect><rect height="221.2449886712617" width="1.6" x="49.6" y="360.62519255470204"></rect><rect height="242.89283303511337" width="1.6" x="51.2" y="360.62519255470204"></rect><rect height="149.4083679957973" width="1.6" x="52.8" y="211.21682455890473"></rect><rect height="321.0333758227432" width="1.6" x="54.4" y="360.62519255470204"></rect><rect height="195.43136043279415" width="1.6" x="56" y="360.62519255470204"></rect><rect height="33.64944868183887" width="1.6" x="57.6" y="326.9757438728632"></rect><rect height="349.1604930833091" width="1.6" x="59.2" y="11.464699471392919"></rect><rect height="360.29171753213575" width="1.6" x="60.8" y="0.33347502256629014"></rect><rect height="138.40364808202494" width="1.6" x="62.4" y="360.62519255470204"></rect><rect height="64.72204255140261" width="1.6" x="64" y="295.9031500032994"></rect><rect height="93.74627983504" width="1.6" x="65.6" y="266.878912719662"></rect><rect height="31.589652349206865" width="1.6" x="67.2" y="329.0355402054952"></rect><rect height="141.28242141629565" width="1.6" x="68.8" y="219.3427711384064"></rect><rect height="337.36544600349674" width="1.6" x="70.4" y="360.62519255470204"></rect><rect height="187.66648225630513" width="1.6" x="72" y="172.9587102983969"></rect><rect height="359.1964014540834" width="1.6" x="73.6" y="360.62519255470204"></rect><rect height="130.58534042080063" width="1.6" x="75.2" y="230.0398521339014"></rect><rect height="329.7729405378601" width="1.6" x="76.8" y="360.62519255470204"></rect><rect height="6.45771679144887" width="1.6" x="78.4" y="360.62519255470204"></rect><rect height="237.26199110613933" width="1.6" x="80" y="123.3632014485627"></rect><rect height="10.829763078369181" width="1.6" x="81.6" y="360.62519255470204"></rect><rect height="36.1321897611757" width="1.6" x="83.2" y="324.49300279352633"></rect><rect height="275.7325225250508" width="1.6" x="84.8" y="360.62519255470204"></rect><rect height="344.17974814891187" width="1.6" x="86.4" y="360.62519255470204"></rect><rect height="75.88385054763161" width="1.6" x="88" y="360.62519255470204"></rect><rect height="135.86533427544106" width="1.6" x="89.6" y="224.75985827926098"></rect><rect height="304.1364930039817" width="1.6" x="91.2" y="360.62519255470204"></rect><rect height="336.4541233038195" width="1.6" x="92.8" y="24.171069250882567"></rect><rect height="248.34454635646838" width="1.6" x="94.4" y="360.62519255470204"></rect><rect height="96.21226897276993" width="1.6" x="96" y="360.62519255470204"></rect><rect height="308.00680960848905" width="1.6" x="97.6" y="52.61838294621299"></rect><rect height="183.2322327744381" width="1.6" x="99.2" y="360.62519255470204"></rect><rect height="249.34042074177364" width="1.6" x="100.8" y="111.2847718129284"></rect><rect height="171.7817804320323" width="1.6" x="102.4" y="360.62519255470204"></rect><rect height="14.198013751149618" width="1.6" x="104" y="360.62519255470204"></rect><rect height="206.70337361745374" width="1.6" x="105.6" y="153.9218189372483"></rect><rect height="64.57842469042" width="1.6" x="107.2" y="360.62519255470204"></rect><rect height="260.768712801256" width="1.6" x="108.8" y="99.85647975344602"></rect><rect height="42.35017977848297" width="1.6" x="110.4" y="318.27501277621906"></rect><rect height="160.58450988195722" width="1.6" x="112" y="200.04068267274482"></rect><rect height="233.10401296344776" width="1.6" x="113.6" y="127.52117959125428"></rect><rect height="23.350892965370086" width="1.6" x="115.2" y="337.274299589332"></rect><rect height="206.20805384332144" width="1.6" x="116.8" y="360.62519255470204"></rect><rect height="154.66163599592568" width="1.6" x="118.4" y="360.62519255470204"></rect><rect height="139.48304657800443" width="1.6" x="120" y="360.62519255470204"></rect><rect height="351.4888357958602" width="1.6" x="121.6" y="9.136356758841828"></rect><rect height="219.51720608734698" width="1.6" x="123.2" y="360.62519255470204"></rect><rect height="233.28495005593544" width="1.6" x="124.8" y="360.62519255470204"></rect><rect height="40.38266054918789" width="1.6" x="126.4" y="360.62519255470204"></rect><rect height="289.3462625459076" width="1.6" x="128" y="71.27893000879442"></rect><rect height="51.64184452041339" width="1.6" x="129.6" y="360.62519255470204"></rect><rect height="175.94918490477752" width="1.6" x="131.2" y="184.67600764992451"></rect><rect height="344.8124467277439" width="1.6" x="132.8" y="360.62519255470204"></rect><rect height="308.69176121320396" width="1.6" x="134.4" y="51.93343134149808"></rect><rect height="127.79683958560771" width="1.6" x="136" y="232.82835296909434"></rect><rect height="77.8984640728867" width="1.6" x="137.6" y="282.72672848181537"></rect><rect height="75.25912357520625" width="1.6" x="139.2" y="360.62519255470204"></rect><rect height="212.1952015515142" width="1.6" x="140.8" y="148.42999100318784"></rect><rect height="223.05536147219883" width="1.6" x="142.4" y="360.62519255470204"></rect><rect height="177.77619289381212" width="1.6" x="144" y="360.62519255470204"></rect><rect height="189.09797384713482" width="1.6" x="145.6" y="171.52721870756722"></rect><rect height="138.6588687661058" width="1.6" x="147.2" y="221.96632378859624"></rect><rect height="321.26374651947407" width="1.6" x="148.8" y="360.62519255470204"></rect><rect height="8.342235653852548" width="1.6" x="150.4" y="360.62519255470204"></rect><rect height="204.42738303506127" width="1.6" x="152" y="360.62519255470204"></rect><rect height="155.08725221391035" width="1.6" x="153.6" y="205.5379403407917"></rect><rect height="238.7296524826615" width="1.6" x="155.2" y="360.62519255470204"></rect><rect height="85.07458751830312" width="1.6" x="156.8" y="275.5506050363989"></rect><rect height="112.66100444537798" width="1.6" x="158.4" y="247.96418810932406"></rect><rect height="111.10970884458779" width="1.6" x="160" y="249.51548371011427"></rect><rect height="160.01872825769948" width="1.6" x="161.6" y="360.62519255470204"></rect><rect height="104.4427697175655" width="1.6" x="163.2" y="256.1824228371365"></rect><rect height="66.83653382928665" width="1.6" x="164.8" y="293.7886587254154"></rect><rect height="300.294926705553" width="1.6" x="166.4" y="360.62519255470204"></rect><rect height="200.01571889808852" width="1.6" x="168" y="360.62519255470204"></rect><rect height="205.05807274989536" width="1.6" x="169.6" y="155.56711980480668"></rect><rect height="184.50197176562781" width="1.6" x="171.2" y="176.12322078907422"></rect><rect height="151.81968013917728" width="1.6" x="172.8" y="360.62519255470204"></rect><rect height="105.02945297074152" width="1.6" x="174.4" y="255.59573958396052"></rect><rect height="274.79025833065873" width="1.6" x="176" y="360.62519255470204"></rect><rect height="274.63914398673904" width="1.6" x="177.6" y="85.986048567963"></rect><rect height="178.81562799522206" width="1.6" x="179.2" y="360.62519255470204"></rect><rect height="145.94532975423834" width="1.6" x="180.8" y="214.6798628004637"></rect><rect height="159.36574427498226" width="1.6" x="182.4" y="360.62519255470204"></rect><rect height="29.088670337863014" width="1.6" x="184" y="360.62519255470204"></rect><rect height="87.6734306657987" width="1.6" x="185.6" y="272.9517618889033"></rect><rect height="327.0245445079561" width="1.6" x="187.2" y="33.60064804674596"></rect><rect height="68.01748994232254" width="1.6" x="188.8" y="292.6077026123795"></rect><rect height="113.03341929326707" width="1.6" x="190.4" y="360.62519255470204"></rect><rect height="138.27840192108613" width="1.6" x="192" y="360.62519255470204"></rect><rect height="12.22891920621281" width="1.6" x="193.6" y="360.62519255470204"></rect><rect height="127.61145173168937" width="1.6" x="195.2" y="360.62519255470204"></rect><rect height="349.4348989980206" width="1.6" x="196.8" y="11.19029355668141"></rect><rect height="279.6563353815078" width="1.6" x="198.4" y="360.62519255470204"></rect><rect height="5.988689452566848" width="1.6" x="200" y="360.62519255470204"></rect><rect height="231.7030536709693" width="1.6" x="201.6" y="360.62519255470204"></rect><rect height="226.11167567992155" width="1.6" x="203.2" y="134.5135168747805"></rect><rect height="49.11383009502617" width="1.6" x="204.8" y="311.51136245967587"></rect><rect height="340.39364279567246" width="1.6" x="206.4" y="360.62519255470204"></rect><rect height="46.39777892327135" width="1.6" x="208" y="314.2274136314307"></rect><rect height="150.57811592750946" width="1.6" x="209.6" y="210.04707662719258"></rect><rect height="339.96761465352273" width="1.6" x="211.2" y="360.62519255470204"></rect><rect height="141.40099194222938" width="1.6" x="212.8" y="360.62519255470204"></rect><rect height="104.74633889576556" width="1.6" x="214.4" y="255.87885365893646"></rect><rect height="180.7860821646888" width="1.6" x="216" y="179.83911039001325"></rect><rect height="264.0881994464112" width="1.6" x="217.6" y="96.53699310829086"></rect><rect height="356.8678948686898" width="1.6" x="219.2" y="360.62519255470204"></rect><rect height="95.22978074183827" width="1.6" x="220.8" y="265.39541181286376"></rect><rect height="8.649269496616805" width="1.6" x="222.4" y="351.97592305808524"></rect><rect height="7.293635227962735" width="1.6" x="224" y="353.3315573267393"></rect><rect height="101.4155355000814" width="1.6" x="225.6" y="360.62519255470204"></rect><rect height="67.61221662573135" width="1.6" x="227.2" y="360.62519255470204"></rect><rect height="313.72261311768847" width="1.6" x="228.8" y="46.90257943701357"></rect><rect height="336.4164050155315" width="1.6" x="230.4" y="360.62519255470204"></rect><rect height="182.1084443670097" width="1.6" x="232" y="360.62519255470204"></rect><rect height="321.88447099665984" width="1.6" x="233.6" y="38.740721558042196"></rect><rect height="49.90613370535951" width="1.6" x="235.2" y="360.62519255470204"></rect><rect height="259.70193043059027" width="1.6" x="236.8" y="100.92326212411177"></rect><rect height="43.891670039342635" width="1.6" x="238.4" y="316.7335225153594"></rect><rect height="236.61087445138455" width="1.6" x="240" y="124.01431810331749"></rect><rect height="183.34727213978576" width="1.6" x="241.6" y="360.62519255470204"></rect><rect height="219.03944610107436" width="1.6" x="243.2" y="360.62519255470204"></rect><rect height="292.4250504672848" width="1.6" x="244.8" y="360.62519255470204"></rect><rect height="20.704475808779062" width="1.6" x="246.4" y="360.62519255470204"></rect><rect height="182.02763554421173" width="1.6" x="248" y="360.62519255470204"></rect><rect height="224.35211277230886" width="1.6" x="249.6" y="136.27307978239318"></rect><rect height="174.25256841550367" width="1.6" x="251.2" y="186.37262413919836"></rect><rect height="119.36291608901112" width="1.6" x="252.8" y="241.26227646569092"></rect><rect height="164.91024062767784" width="1.6" x="254.4" y="360.62519255470204"></rect><rect height="181.93555403799374" width="1.6" x="256" y="178.6896385167083"></rect><rect height="71.78306908976354" width="1.6" x="257.6" y="360.62519255470204"></rect><rect height="96.68041375239628" width="1.6" x="259.2" y="360.62519255470204"></rect><rect height="255.802217790461" width="1.6" x="260.8" y="104.82297476424105"></rect><rect height="190.87334834083526" width="1.6" x="262.4" y="169.75184421386678"></rect><rect height="316.13557723244645" width="1.6" x="264" y="360.62519255470204"></rect><rect height="154.93880721037488" width="1.6" x="265.6" y="205.68638534432716"></rect><rect height="142.6763414652379" width="1.6" x="267.2" y="217.94885108946414"></rect><rect height="230.16501796717725" width="1.6" x="268.8" y="360.62519255470204"></rect><rect height="169.07555915307157" width="1.6" x="270.4" y="191.54963340163047"></rect><rect height="148.2115864379475" width="1.6" x="272" y="212.41360611675455"></rect><rect height="12.20116080108565" width="1.6" x="273.6" y="360.62519255470204"></rect><rect height="173.90884438182067" width="1.6" x="275.2" y="360.62519255470204"></rect><rect height="21.18050267201449" width="1.6" x="276.8" y="360.62519255470204"></rect><rect height="343.40221641587584" width="1.6" x="278.4" y="17.222976138826198"></rect><rect height="159.65344662068793" width="1.6" x="280" y="200.9717459340141"></rect><rect height="319.66409073236275" width="1.6" x="281.6" y="360.62519255470204"></rect><rect height="51.26871065657177" width="1.6" x="283.2" y="309.35648189813026"></rect><rect height="165.88735393492564" width="1.6" x="284.8" y="194.7378386197764"></rect><rect height="241.89552762758294" width="1.6" x="286.4" y="360.62519255470204"></rect><rect height="234.46809726450317" width="1.6" x="288" y="360.62519255470204"></rect><rect height="269.07676531827695" width="1.6" x="289.6" y="360.62519255470204"></rect><rect height="293.22050184014034" width="1.6" x="291.2" y="67.4046907145617"></rect><rect height="323.32891781510693" width="1.6" x="292.8" y="37.296274739595106"></rect><rect height="275.175586089451" width="1.6" x="294.4" y="85.44960646525107"></rect><rect height="0.5609976433321793" width="1.6" x="296" y="360.06419491136984"></rect><rect height="138.4072412576529" width="1.6" x="297.6" y="360.62519255470204"></rect><rect height="360.1691606208793" width="1.6" x="299.2" y="0.45603193382271456"></rect><rect height="53.96852088628353" width="1.6" x="300.8" y="360.62519255470204"></rect><rect height="337.5639951935167" width="1.6" x="302.4" y="23.06119736118535"></rect><rect height="56.01386667242714" width="1.6" x="304" y="304.6113258822749"></rect><rect height="1.01351042629931" width="1.6" x="305.6" y="360.62519255470204"></rect><rect height="92.11523884098263" width="1.6" x="307.2" y="268.5099537137194"></rect><rect height="173.5063826791326" width="1.6" x="308.8" y="187.11880987556944"></rect><rect height="39.16092304191266" width="1.6" x="310.4" y="321.4642695127894"></rect><rect height="297.99920346124344" width="1.6" x="312" y="360.62519255470204"></rect><rect height="261.98307379039414" width="1.6" x="313.6" y="360.62519255470204"></rect><rect height="216.38169220458676" width="1.6" x="315.2" y="144.24350035011528"></rect><rect height="216.88130884086993" width="1.6" x="316.8" y="143.7438837138321"></rect><rect height="143.76848427137472" width="1.6" x="318.4" y="360.62519255470204"></rect><rect height="266.74099234685184" width="1.6" x="320" y="360.62519255470204"></rect><rect height="9.788259964712458" width="1.6" x="321.6" y="360.62519255470204"></rect><rect height="207.35161814837048" width="1.6" x="323.2" y="153.27357440633156"></rect><rect height="188.4396074631674" width="1.6" x="324.8" y="360.62519255470204"></rect><rect height="60.844624183031904" width="1.6" x="326.4" y="299.78056837167014"></rect><rect height="79.02070235013116" width="1.6" x="328" y="281.6044902045709"></rect><rect height="24.328507932544774" width="1.6" x="329.6" y="336.2966846221573"></rect><rect height="204.59189265507325" width="1.6" x="331.2" y="156.0332998996288"></rect><rect height="131.64894656144205" width="1.6" x="332.8" y="228.97624599326"></rect><rect height="285.2992057282154" width="1.6" x="334.4" y="75.32598682648666"></rect><rect height="155.92467463691594" width="1.6" x="336" y="360.62519255470204"></rect><rect height="199.16049955381567" width="1.6" x="337.6" y="161.46469300088637"></rect><rect height="99.6046272277371" width="1.6" x="339.2" y="360.62519255470204"></rect><rect height="340.5880071585844" width="1.6" x="340.8" y="20.03718539611765"></rect><rect height="253.1187737973112" width="1.6" x="342.4" y="360.62519255470204"></rect><rect height="36.752661348393715" width="1.6" x="344" y="360.62519255470204"></rect><rect height="16.13890933016256" width="1.6" x="345.6" y="360.62519255470204"></rect><rect height="157.71345688355368" width="1.6" x="347.2" y="202.91173567114836"></rect><rect height="6.621720061498166" width="1.6" x="348.8" y="354.00347249320384"></rect><rect height="323.9884228881851" width="1.6" x="350.4" y="360.62519255470204"></rect><rect height="51.678291239951086" width="1.6" x="352" y="308.94690131475096"></rect><rect height="169.73410154345765" width="1.6" x="353.6" y="190.89109101124438"></rect><rect height="98.71257862703635" width="1.6" x="355.2" y="360.62519255470204"></rect><rect height="324.1762659911015" width="1.6" x="356.8" y="360.62519255470204"></rect><rect height="205.88805655989302" width="1.6" x="358.4" y="154.73713599480902"></rect><rect height="281.3214923219942" width="1.6" x="360" y="79.30370023270785"></rect><rect height="189.82612510911005" width="1.6" x="361.6" y="170.799067445592"></rect><rect height="18.63982130583151" width="1.6" x="363.2" y="341.98537124887054"></rect><rect height="355.72728869627684" width="1.6" x="364.8" y="360.62519255470204"></rect><rect height="79.90889229495183" width="1.6" x="366.4" y="360.62519255470204"></rect><rect height="289.2687634618894" width="1.6" x="368" y="71.35642909281262"></rect><rect height="116.49167089203917" width="1.6" x="369.6" y="360.62519255470204"></rect><rect height="338.1692832332727" width="1.6" x="371.2" y="22.455909321429317"></rect><rect height="62.32833329582262" width="1.6" x="372.8" y="298.2968592588794"></rect><rect height="40.33826959534231" width="1.6" x="374.4" y="360.62519255470204"></rect><rect height="6.284950765212362" width="1.6" x="376" y="360.62519255470204"></rect><rect height="78.98365963281768" width="1.6" x="377.6" y="281.6415329218844"></rect><rect height="197.36942045047806" width="1.6" x="379.2" y="163.25577210422398"></rect><rect height="206.40491243777097" width="1.6" x="380.8" y="360.62519255470204"></rect><rect height="73.0462936720333" width="1.6" x="382.4" y="287.57889888266874"></rect><rect height="173.92641736575257" width="1.6" x="384" y="186.69877518894947"></rect><rect height="44.331671347073254" width="1.6" x="385.6" y="316.29352120762877"></rect><rect height="96.93353866706643" width="1.6" x="387.2" y="360.62519255470204"></rect><rect height="217.3719576836279" width="1.6" x="388.8" y="143.25323487107414"></rect><rect height="127.91643210589794" width="1.6" x="390.4" y="232.7087604488041"></rect><rect height="336.0273900217039" width="1.6" x="392" y="360.62519255470204"></rect><rect height="231.5670843088622" width="1.6" x="393.6" y="129.05810824583983"></rect><rect height="14.506302786509897" width="1.6" x="395.2" y="360.62519255470204"></rect><rect height="157.4647263865492" width="1.6" x="396.8" y="360.62519255470204"></rect><rect height="197.16211122192513" width="1.6" x="398.4" y="163.4630813327769"></rect><rect height="226.6233499681712" width="1.6" x="400" y="134.00184258653084"></rect><rect height="220.05748082874848" width="1.6" x="401.6" y="360.62519255470204"></rect><rect height="76.4689670311872" width="1.6" x="403.2" y="284.1562255235148"></rect><rect height="358.45171936967125" width="1.6" x="404.8" y="360.62519255470204"></rect><rect height="311.6854019480804" width="1.6" x="406.4" y="360.62519255470204"></rect><rect height="196.41707034741535" width="1.6" x="408" y="164.2081222072867"></rect><rect height="295.026449644598" width="1.6" x="409.6" y="360.62519255470204"></rect><rect height="73.4597614600004" width="1.6" x="411.2" y="287.16543109470166"></rect><rect height="149.226373974699" width="1.6" x="412.8" y="360.62519255470204"></rect><rect height="306.68892458527387" width="1.6" x="414.4" y="360.62519255470204"></rect><rect height="257.1782537674767" width="1.6" x="416" y="360.62519255470204"></rect><rect height="81.78045567894974" width="1.6" x="417.6" y="360.62519255470204"></rect><rect height="65.64108748153815" width="1.6" x="419.2" y="360.62519255470204"></rect><rect height="218.95819843815042" width="1.6" x="420.8" y="360.62519255470204"></rect><rect height="154.4468852237762" width="1.6" x="422.4" y="206.17830733092583"></rect><rect height="224.9955223211921" width="1.6" x="424" y="360.62519255470204"></rect><rect height="250.94629043593523" width="1.6" x="425.6" y="360.62519255470204"></rect><rect height="230.93127705403805" width="1.6" x="427.2" y="129.693915500664"></rect><rect height="52.44622005232517" width="1.6" x="428.8" y="360.62519255470204"></rect><rect height="39.96345196554053" width="1.6" x="430.4" y="360.62519255470204"></rect><rect height="11.771099258444035" width="1.6" x="432" y="360.62519255470204"></rect><rect height="107.84227587561641" width="1.6" x="433.6" y="360.62519255470204"></rect><rect height="151.35888358242104" width="1.6" x="435.2" y="209.266308972281"></rect><rect height="129.12971882865648" width="1.6" x="436.8" y="231.49547372604556"></rect><rect height="17.41726956476591" width="1.6" x="438.4" y="343.20792298993615"></rect><rect height="356.3452868396277" width="1.6" x="440" y="4.279905715074335"></rect><rect height="147.41493236244565" width="1.6" x="441.6" y="360.62519255470204"></rect><rect height="316.2379432797777" width="1.6" x="443.2" y="360.62519255470204"></rect><rect height="67.45433599588428" width="1.6" x="444.8" y="293.1708565588178"></rect><rect height="130.58431093657066" width="1.6" x="446.4" y="360.62519255470204"></rect><rect height="2.5995589253309586" width="1.6" x="448" y="358.0256336293711"></rect><rect height="66.13731423977532" width="1.6" x="449.6" y="360.62519255470204"></rect><rect height="159.99418450474346" width="1.6" x="451.2" y="360.62519255470204"></rect><rect height="328.1379717264688" width="1.6" x="452.8" y="360.62519255470204"></rect><rect height="103.19889387552399" width="1.6" x="454.4" y="257.42629867917805"></rect><rect height="93.33650412840373" width="1.6" x="456" y="360.62519255470204"></rect><rect height="94.15495178121529" width="1.6" x="457.6" y="360.62519255470204"></rect><rect height="124.69525818764563" width="1.6" x="459.2" y="235.9299343670564"></rect><rect height="352.94675084401985" width="1.6" x="460.8" y="7.678441710682193"></rect><rect height="133.01036542448534" width="1.6" x="462.4" y="360.62519255470204"></rect><rect height="309.0483225000042" width="1.6" x="464" y="51.57687005469785"></rect><rect height="111.63399223959817" width="1.6" x="465.6" y="360.62519255470204"></rect><rect height="219.9716343500175" width="1.6" x="467.2" y="140.65355820468454"></rect><rect height="119.45130511510007" width="1.6" x="468.8" y="360.62519255470204"></rect><rect height="152.01250111325237" width="1.6" x="470.4" y="208.61269144144967"></rect><rect height="227.80123233487615" width="1.6" x="472" y="132.8239602198259"></rect><rect height="351.568172609024" width="1.6" x="473.6" y="360.62519255470204"></rect><rect height="277.17957522029826" width="1.6" x="475.2" y="360.62519255470204"></rect><rect height="125.63848517380127" width="1.6" x="476.8" y="234.98670738090078"></rect><rect height="108.79211729209179" width="1.6" x="478.4" y="251.83307526261024"></rect><rect height="186.76146893439443" width="1.6" x="480" y="360.62519255470204"></rect><rect height="331.58806969792937" width="1.6" x="481.6" y="29.03712285677267"></rect><rect height="144.83735891810298" width="1.6" x="483.2" y="360.62519255470204"></rect><rect height="298.0479029952286" width="1.6" x="484.8" y="62.577289559473456"></rect><rect height="265.42071670057396" width="1.6" x="486.4" y="360.62519255470204"></rect><rect height="344.7746754481422" width="1.6" x="488" y="360.62519255470204"></rect><rect height="332.56311333228535" width="1.6" x="489.6" y="360.62519255470204"></rect><rect height="100.89683015953375" width="1.6" x="491.2" y="360.62519255470204"></rect><rect height="349.45612816800826" width="1.6" x="492.8" y="360.62519255470204"></rect><rect height="337.20927654635335" width="1.6" x="494.4" y="360.62519255470204"></rect><rect height="163.5090832419253" width="1.6" x="496" y="360.62519255470204"></rect><rect height="265.1099345067128" width="1.6" x="497.6" y="95.51525804798922"></rect><rect height="179.24128350950755" width="1.6" x="499.2" y="360.62519255470204"></rect><rect height="325.66108526696485" width="1.6" x="500.8" y="360.62519255470204"></rect><rect height="199.92349213362348" width="1.6" x="502.4" y="160.70170042107856"></rect><rect height="255.31645844532196" width="1.6" x="504" y="360.62519255470204"></rect><rect height="232.58586040511955" width="1.6" x="505.6" y="128.0393321495825"></rect><rect height="46.54792534630729" width="1.6" x="507.2" y="314.07726720839474"></rect><rect height="257.58593219793295" width="1.6" x="508.8" y="103.03926035676909"></rect><rect height="312.17303584044754" width="1.6" x="510.4" y="360.62519255470204"></rect><rect height="331.57220890247567" width="1.6" x="512" y="360.62519255470204"></rect><rect height="230.36603740511748" width="1.6" x="513.6" y="360.62519255470204"></rect><rect height="355.6298510494327" width="1.6" x="515.2" y="4.995341505269323"></rect><rect height="226.6174955636987" width="1.6" x="516.8" y="134.00769699100334"></rect><rect height="47.22606267352436" width="1.6" x="518.4" y="313.39912988117766"></rect><rect height="130.75761494734869" width="1.6" x="520" y="360.62519255470204"></rect><rect height="343.7008501497086" width="1.6" x="521.6" y="360.62519255470204"></rect><rect height="277.96166280035237" width="1.6" x="523.2" y="82.66352975434967"></rect><rect height="181.87471041570336" width="1.6" x="524.8" y="360.62519255470204"></rect><rect height="323.63195084522613" width="1.6" x="526.4" y="36.99324170947591"></rect><rect height="131.0887345401014" width="1.6" x="528" y="229.53645801460064"></rect><rect height="11.61527420532388" width="1.6" x="529.6" y="360.62519255470204"></rect><rect height="185.19354829112044" width="1.6" x="531.2" y="175.4316442635816"></rect><rect height="272.0437729590323" width="1.6" x="532.8" y="360.62519255470204"></rect><rect height="12.10277785258509" width="1.6" x="534.4" y="348.522414702117"></rect><rect height="266.2688532706011" width="1.6" x="536" y="360.62519255470204"></rect><rect height="148.87106753563415" width="1.6" x="537.6" y="360.62519255470204"></rect><rect height="227.91891540895443" width="1.6" x="539.2" y="360.62519255470204"></rect><rect height="280.1864475238314" width="1.6" x="540.8" y="360.62519255470204"></rect><rect height="33.43649893063744" width="1.6" x="542.4" y="360.62519255470204"></rect><rect height="208.06127122632884" width="1.6" x="544" y="360.62519255470204"></rect><rect height="246.89972159238638" width="1.6" x="545.6" y="113.72547096231565"></rect><rect height="193.78254570878727" width="1.6" x="547.2" y="166.84264684591477"></rect><rect height="336.47446466080515" width="1.6" x="548.8" y="24.150727893896885"></rect><rect height="195.7522969696075" width="1.6" x="550.4" y="164.87289558509454"></rect><rect height="352.5121479608696" width="1.6" x="552" y="360.62519255470204"></rect><rect height="180.92217660756387" width="1.6" x="553.6" y="179.70301594713817"></rect><rect height="127.79363609852899" width="1.6" x="555.2" y="360.62519255470204"></rect><rect height="234.13565307188094" width="1.6" x="556.8" y="126.4895394828211"></rect><rect height="226.02035586593135" width="1.6" x="558.4" y="360.62519255470204"></rect><rect height="46.602268887488854" width="1.6" x="560" y="314.0229236672132"></rect><rect height="331.16265428123137" width="1.6" x="561.6" y="29.46253827347067"></rect><rect height="168.32509286147356" width="1.6" x="563.2" y="192.30009969322847"></rect><rect height="122.03451470928877" width="1.6" x="564.8" y="360.62519255470204"></rect><rect height="123.08895870860441" width="1.6" x="566.4" y="237.53623384609762"></rect><rect height="186.6487999551795" width="1.6" x="568" y="360.62519255470204"></rect><rect height="72.58585015923099" width="1.6" x="569.6" y="360.62519255470204"></rect><rect height="198.4875244337751" width="1.6" x="571.2" y="162.13766812092695"></rect><rect height="0.3392988462795989" width="1.6" x="572.8" y="360.62519255470204"></rect><rect height="150.01536912342195" width="1.6" x="574.4" y="360.62519255470204"></rect><rect height="286.70459861993584" width="1.6" x="576" y="73.9205939347662"></rect><rect height="104.8423932115421" width="1.6" x="577.6" y="360.62519255470204"></rect><rect height="98.0613661475488" width="1.6" x="579.2" y="262.5638264071532"></rect><rect height="93.29632079788429" width="1.6" x="580.8" y="360.62519255470204"></rect><rect height="231.6941676911369" width="1.6" x="582.4" y="128.93102486356514"></rect><rect height="300.7821670234532" width="1.6" x="584" y="360.62519255470204"></rect><rect height="33.212815292169054" width="1.6" x="585.6" y="327.41237726253297"></rect><rect height="127.66583133050926" width="1.6" x="587.2" y="360.62519255470204"></rect><rect height="259.26129542579906" width="1.6" x="588.8" y="360.62519255470204"></rect><rect height="340.3188710767402" width="1.6" x="590.4" y="20.30632147796183"></rect><rect height="144.69442173552466" width="1.6" x="592" y="360.62519255470204"></rect><rect height="296.33441728386373" width="1.6" x="593.6" y="64.29077527083831"></rect><rect height="333.91857781888893" width="1.6" x="595.2" y="360.62519255470204"></rect><rect height="196.38898777949981" width="1.6" x="596.8" y="360.62519255470204"></rect><rect height="140.45852807435872" width="1.6" x="598.4" y="360.62519255470204"></rect><rect height="340.5707573950031" width="1.6" x="600" y="20.054435159698926"></rect><rect height="307.6515521663766" width="1.6" x="601.6" y="52.973640388325464"></rect><rect height="338.1969961075483" width="1.6" x="603.2" y="22.428196447153766"></rect><rect height="209.107466400286" width="1.6" x="604.8" y="360.62519255470204"></rect><rect height="155.7007358721807" width="1.6" x="606.4" y="360.62519255470204"></rect><rect height="99.81972535442354" width="1.6" x="608" y="260.8054672002785"></rect><rect height="150.35901807664578" width="1.6" x="609.6" y="210.26617447805626"></rect><rect height="184.77898611987715" width="1.6" x="611.2" y="175.8462064348249"></rect><rect height="120.24131382685128" width="1.6" x="612.8" y="240.38387872785074"></rect><rect height="13.151305182906246" width="1.6" x="614.4" y="347.4738873717958"></rect><rect height="66.0850095360591" width="1.6" x="616" y="360.62519255470204"></rect><rect height="48.05897642319481" width="1.6" x="617.6" y="312.56621613150725"></rect><rect height="116.60132348970726" width="1.6" x="619.2" y="360.62519255470204"></rect><rect height="356.61437606588623" width="1.6" x="620.8" y="360.62519255470204"></rect><rect height="30.198214153781645" width="1.6" x="622.4" y="330.4269784009204"></rect><rect height="43.89312880906183" width="1.6" x="624" y="316.73206374564023"></rect><rect height="229.5127229645839" width="1.6" x="625.6" y="131.11246959011814"></rect><rect height="256.650602174022" width="1.6" x="627.2" y="360.62519255470204"></rect><rect height="134.6244235099771" width="1.6" x="628.8" y="226.00076904472493"></rect><rect height="296.6848628768507" width="1.6" x="630.4" y="63.940329677851366"></rect><rect height="102.11563740194948" width="1.6" x="632" y="258.50955515275257"></rect><rect height="131.40638875855325" width="1.6" x="633.6" y="360.62519255470204"></rect><rect height="40.80896912421283" width="1.6" x="635.2" y="360.62519255470204"></rect><rect height="173.39316491342143" width="1.6" x="636.8" y="360.62519255470204"></rect><rect height="335.11517549362736" width="1.6" x="638.4" y="360.62519255470204"></rect><rect height="30.83060103213565" width="1.6" x="640" y="360.62519255470204"></rect><rect height="321.4906732871317" width="1.6" x="641.6" y="360.62519255470204"></rect><rect height="211.75700366420998" width="1.6" x="643.2" y="360.62519255470204"></rect><rect height="186.68032383333733" width="1.6" x="644.8" y="360.62519255470204"></rect><rect height="276.1731892013985" width="1.6" x="646.4" y="84.45200335330355"></rect><rect height="330.60867667521535" width="1.6" x="648" y="30.01651587948669"></rect><rect height="291.84384364659877" width="1.6" x="649.6" y="68.78134890810327"></rect><rect height="54.0507299297605" width="1.6" x="651.2" y="306.57446262494153"></rect><rect height="315.71563009662987" width="1.6" x="652.8" y="44.90956245807217"></rect><rect height="112.52565965123344" width="1.6" x="654.4" y="248.0995329034686"></rect><rect height="352.3376643246803" width="1.6" x="656" y="8.287528230021735"></rect><rect height="17.35351647508019" width="1.6" x="657.6" y="360.62519255470204"></rect><rect height="56.065705180187585" width="1.6" x="659.2" y="304.55948737451445"></rect><rect height="150.08579590264767" width="1.6" x="660.8" y="210.53939665205436"></rect><rect height="327.09818132569404" width="1.6" x="662.4" y="33.527011229008"></rect><rect height="157.10349329378172" width="1.6" x="664" y="203.52169926092031"></rect><rect height="277.6071534558067" width="1.6" x="665.6" y="360.62519255470204"></rect><rect height="115.90835738159598" width="1.6" x="667.2" y="360.62519255470204"></rect><rect height="14.269758626961993" width="1.6" x="668.8" y="346.35543392774"></rect><rect height="128.52623431761666" width="1.6" x="670.4" y="232.09895823708538"></rect><rect height="79.23412084495796" width="1.6" x="672" y="360.62519255470204"></rect><rect height="238.46964716909042" width="1.6" x="673.6" y="360.62519255470204"></rect><rect height="0.9355069004890743" width="1.6" x="675.2" y="359.68968565421295"></rect><rect height="302.920728384951" width="1.6" x="676.8" y="360.62519255470204"></rect><rect height="175.87816432856624" width="1.6" x="678.4" y="184.7470282261358"></rect><rect height="222.98229417454166" width="1.6" x="680" y="137.64289838016037"></rect><rect height="238.39102697775084" width="1.6" x="681.6" y="360.62519255470204"></rect><rect height="275.8874422358008" width="1.6" x="683.2" y="84.73775031890125"></rect><rect height="138.4054825243564" width="1.6" x="684.8" y="360.62519255470204"></rect><rect height="95.84088104885718" width="1.6" x="686.4" y="264.78431150584487"></rect><rect height="252.0936325220328" width="1.6" x="688" y="360.62519255470204"></rect><rect height="319.84234728031595" width="1.6" x="689.6" y="360.62519255470204"></rect><rect height="155.38227626114625" width="1.6" x="691.2" y="360.62519255470204"></rect><rect height="268.52037569916416" width="1.6" x="692.8" y="92.10481685553788"></rect><rect height="55.65819970814606" width="1.6" x="694.4" y="360.62519255470204"></rect><rect height="269.88487303299405" width="1.6" x="696" y="90.74031952170799"></rect><rect height="307.905474739726" width="1.6" x="697.6" y="360.62519255470204"></rect><rect height="177.95954628212434" width="1.6" x="699.2" y="360.62519255470204"></rect><rect height="293.79445617265156" width="1.6" x="700.8" y="360.62519255470204"></rect><rect height="269.1443651077967" width="1.6" x="702.4" y="91.48082744690532"></rect><rect height="96.68748853005425" width="1.6" x="704" y="360.62519255470204"></rect><rect height="245.94455795486837" width="1.6" x="705.6" y="114.68063459983367"></rect><rect height="191.5438024856422" width="1.6" x="707.2" y="360.62519255470204"></rect><rect height="229.69275941311824" width="1.6" x="708.8" y="360.62519255470204"></rect><rect height="34.06062217677604" width="1.6" x="710.4" y="326.564570377926"></rect><rect height="94.25492826271625" width="1.6" x="712" y="360.62519255470204"></rect><rect height="202.2733669225832" width="1.6" x="713.6" y="360.62519255470204"></rect><rect height="343.4228207310253" width="1.6" x="715.2" y="17.202371823676742"></rect><rect height="318.80283070097715" width="1.6" x="716.8" y="360.62519255470204"></rect><rect height="102.58399006010833" width="1.6" x="718.4" y="360.62519255470204"></rect><rect height="120.64325884670832" width="1.6" x="720" y="239.98193370799373"></rect><rect height="261.133669580752" width="1.6" x="721.6" y="99.49152297395005"></rect><rect height="137.77579543587427" width="1.6" x="723.2" y="222.84939711882777"></rect><rect height="18.289452638401894" width="1.6" x="724.8" y="360.62519255470204"></rect><rect height="123.77536358249354" width="1.6" x="726.4" y="360.62519255470204"></rect><rect height="170.12446539326427" width="1.6" x="728" y="190.50072716143777"></rect><rect height="272.0463384098147" width="1.6" x="729.6" y="360.62519255470204"></rect><rect height="223.32397531478338" width="1.6" x="731.2" y="360.62519255470204"></rect><rect height="355.3640588026067" width="1.6" x="732.8" y="5.261133752095361"></rect><rect height="243.47390488492115" width="1.6" x="734.4" y="360.62519255470204"></rect><rect height="57.66567653268065" width="1.6" x="736" y="360.62519255470204"></rect><rect height="17.748049847036604" width="1.6" x="737.6" y="342.8771427076654"></rect><rect height="172.1100575392799" width="1.6" x="739.2" y="188.51513501542215"></rect><rect height="124.83530480667918" width="1.6" x="740.8" y="235.78988774802286"></rect><rect height="70.43181775556204" width="1.6" x="742.4" y="290.19337479914"></rect><rect height="196.4364486076823" width="1.6" x="744" y="164.18874394701973"></rect><rect height="152.33192901246738" width="1.6" x="745.6" y="208.29326354223466"></rect><rect height="44.908420327972024" width="1.6" x="747.2" y="360.62519255470204"></rect><rect height="239.75107213010895" width="1.6" x="748.8" y="120.87412042459309"></rect><rect height="17.377124441891517" width="1.6" x="750.4" y="360.62519255470204"></rect><rect height="276.2131280855413" width="1.6" x="752" y="84.41206446916073"></rect><rect height="136.71224051308462" width="1.6" x="753.6" y="223.91295204161742"></rect><rect height="107.59915109800808" width="1.6" x="755.2" y="360.62519255470204"></rect><rect height="20.643416157920587" width="1.6" x="756.8" y="339.98177639678147"></rect><rect height="234.21889153666214" width="1.6" x="758.4" y="360.62519255470204"></rect><rect height="273.0858525363504" width="1.6" x="760" y="87.53934001835165"></rect><rect height="42.866239841635846" width="1.6" x="761.6" y="317.7589527130662"></rect><rect height="199.6419141141446" width="1.6" x="763.2" y="360.62519255470204"></rect><rect height="141.1651746701621" width="1.6" x="764.8" y="219.46001788453995"></rect><rect height="342.30243488437316" width="1.6" x="766.4" y="360.62519255470204"></rect><rect height="5.628980952602495" width="1.6" x="768" y="360.62519255470204"></rect><rect height="158.93413508376898" width="1.6" x="769.6" y="360.62519255470204"></rect><rect height="185.45214335426274" width="1.6" x="771.2" y="175.1730492004393"></rect><rect height="314.0159498237573" width="1.6" x="772.8" y="46.60924273094474"></rect><rect height="173.13794353445147" width="1.6" x="774.4" y="360.62519255470204"></rect><rect height="112.8221057918105" width="1.6" x="776" y="360.62519255470204"></rect><rect height="259.36090357250816" width="1.6" x="777.6" y="101.26428898219388"></rect><rect height="302.8313809366743" width="1.6" x="779.2" y="57.793811618027746"></rect><rect height="181.84264265204735" width="1.6" x="780.8" y="178.7825499026547"></rect><rect height="186.7689797563812" width="1.6" x="782.4" y="360.62519255470204"></rect><rect height="178.53882513493687" width="1.6" x="784" y="182.08636741976517"></rect><rect height="11.429901773413953" width="1.6" x="785.6" y="349.19529078128807"></rect><rect height="5.968687228884319" width="1.6" x="787.2" y="360.62519255470204"></rect><rect height="141.10961997063188" width="1.6" x="788.8" y="360.62519255470204"></rect><rect height="198.47361974180143" width="1.6" x="790.4" y="360.62519255470204"></rect><rect height="233.51794109530127" width="1.6" x="792" y="360.62519255470204"></rect><rect height="199.60751583719244" width="1.6" x="793.6" y="360.62519255470204"></rect><rect height="58.718597026252816" width="1.6" x="795.2" y="360.62519255470204"></rect><rect height="39.353285535224" width="1.6" x="796.8" y="360.62519255470204"></rect><rect height="137.2627840987148" width="1.6" x="798.4" y="360.62519255470204"></rect><rect height="18.5092619983459" width="1.6" x="800" y="360.62519255470204"></rect><rect height="322.68281759375196" width="1.6" x="801.6" y="360.62519255470204"></rect><rect height="347.4758055792914" width="1.6" x="803.2" y="13.149386975410664"></rect><rect height="254.3923602529892" width="1.6" x="804.8" y="360.62519255470204"></rect><rect height="294.9235170347624" width="1.6" x="806.4" y="360.62519255470204"></rect><rect height="51.85329713640882" width="1.6" x="808" y="360.62519255470204"></rect><rect height="283.1117826144022" width="1.6" x="809.6" y="360.62519255470204"></rect><rect height="241.21768206433123" width="1.6" x="811.2" y="119.40751049037081"></rect><rect height="0.8470537291728105" width="1.6" x="812.8" y="359.77813882552925"></rect><rect height="259.8047126819768" width="1.6" x="814.4" y="360.62519255470204"></rect><rect height="90.78538454889863" width="1.6" x="816" y="360.62519255470204"></rect><rect height="224.25240755949025" width="1.6" x="817.6" y="136.3727849952118"></rect><rect height="201.3082632894179" width="1.6" x="819.2" y="360.62519255470204"></rect><rect height="340.7658885995804" width="1.6" x="820.8" y="360.62519255470204"></rect><rect height="153.2906065980238" width="1.6" x="822.4" y="207.33458595667824"></rect><rect height="323.8117296854616" width="1.6" x="824" y="360.62519255470204"></rect><rect height="356.8898155150372" width="1.6" x="825.6" y="3.7353770396648542"></rect><rect height="210.78566106159965" width="1.6" x="827.2" y="149.83953149310238"></rect><rect height="315.91156783523564" width="1.6" x="828.8" y="360.62519255470204"></rect><rect height="322.51819509152716" width="1.6" x="830.4" y="38.10699746317488"></rect><rect height="176.7460736081517" width="1.6" x="832" y="183.87911894655034"></rect><rect height="286.1533090060194" width="1.6" x="833.6" y="74.47188354868263"></rect><rect height="161.0131938442172" width="1.6" x="835.2" y="199.61199871048484"></rect><rect height="116.60611560889241" width="1.6" x="836.8" y="244.01907694580962"></rect><rect height="26.80614791619586" width="1.6" x="838.4" y="360.62519255470204"></rect><rect height="63.98683045366068" width="1.6" x="840" y="296.63836210104137"></rect><rect height="67.73426205360424" width="1.6" x="841.6" y="360.62519255470204"></rect><rect height="92.8269478578851" width="1.6" x="843.2" y="267.79824469681694"></rect><rect height="347.44649513734254" width="1.6" x="844.8" y="360.62519255470204"></rect><rect height="44.94082304860471" width="1.6" x="846.4" y="360.62519255470204"></rect><rect height="143.07553328202567" width="1.6" x="848" y="360.62519255470204"></rect><rect height="71.53716750730818" width="1.6" x="849.6" y="360.62519255470204"></rect><rect height="266.57428115128937" width="1.6" x="851.2" y="94.05091140341267"></rect><rect height="117.56097584820598" width="1.6" x="852.8" y="243.06421670649604"></rect><rect height="167.3676391628356" width="1.6" x="854.4" y="360.62519255470204"></rect><rect height="6.3974358033393095" width="1.6" x="856" y="360.62519255470204"></rect><rect height="61.428615733339626" width="1.6" x="857.6" y="299.19657682136244"></rect><rect height="116.74442337807648" width="1.6" x="859.2" y="243.88076917662556"></rect><rect height="110.66239901807603" width="1.6" x="860.8" y="249.962793536626"></rect><rect height="336.3630812476235" width="1.6" x="862.4" y="24.262111307078555"></rect><rect height="252.33915807770217" width="1.6" x="864" y="360.62519255470204"></rect><rect height="52.6511398031888" width="1.6" x="865.6" y="307.9740527515132"></rect><rect height="260.0014675246302" width="1.6" x="867.2" y="360.62519255470204"></rect><rect height="6.809266154240519" width="1.6" x="868.8" y="353.81592640046154"></rect><rect height="355.2209025833842" width="1.6" x="870.4" y="360.62519255470204"></rect><rect height="67.55104815017955" width="1.6" x="872" y="360.62519255470204"></rect><rect height="39.6421365857054" width="1.6" x="873.6" y="360.62519255470204"></rect><rect height="79.47857414741961" width="1.6" x="875.2" y="360.62519255470204"></rect><rect height="295.6513586746877" width="1.6" x="876.8" y="64.97383388001435"></rect><rect height="168.68089417343896" width="1.6" x="878.4" y="360.62519255470204"></rect><rect height="113.5833730326648" width="1.6" x="880" y="247.04181952203726"></rect><rect height="175.9034595184753" width="1.6" x="881.6" y="360.62519255470204"></rect><rect height="163.6852788618702" width="1.6" x="883.2" y="196.93991369283185"></rect><rect height="32.85922407438952" width="1.6" x="884.8" y="360.62519255470204"></rect><rect height="0.00970880865386683" width="1.6" x="886.4" y="360.6154837460482"></rect><rect height="351.69653515447095" width="1.6" x="888" y="8.928657400231089"></rect><rect height="11.892115615650088" width="1.6" x="889.6" y="348.73307693905195"></rect><rect height="209.90465829930736" width="1.6" x="891.2" y="150.72053425539468"></rect><rect height="234.29968191182496" width="1.6" x="892.8" y="126.32551064287708"></rect><rect height="262.3643943388797" width="1.6" x="894.4" y="98.26079821582232"></rect><rect height="152.10271631549446" width="1.6" x="896" y="360.62519255470204"></rect><rect height="132.14387795421385" width="1.6" x="897.6" y="360.62519255470204"></rect><rect height="220.92601902515105" width="1.6" x="899.2" y="360.62519255470204"></rect><rect height="219.07917323932355" width="1.6" x="900.8" y="360.62519255470204"></rect><rect height="260.5339259025663" width="1.6" x="902.4" y="360.62519255470204"></rect><rect height="116.56797731441962" width="1.6" x="904" y="244.0572152402824"></rect><rect height="8.923754782291196" width="1.6" x="905.6" y="351.7014377724108"></rect><rect height="250.12203183404074" width="1.6" x="907.2" y="360.62519255470204"></rect><rect height="79.96163123258182" width="1.6" x="908.8" y="280.66356132212024"></rect><rect height="163.98455973972568" width="1.6" x="910.4" y="196.64063281497636"></rect><rect height="174.87074382878188" width="1.6" x="912" y="360.62519255470204"></rect><rect height="316.6678663431265" width="1.6" x="913.6" y="43.95732621157555"></rect><rect height="40.93895939898235" width="1.6" x="915.2" y="360.62519255470204"></rect><rect height="324.31713917492567" width="1.6" x="916.8" y="360.62519255470204"></rect><rect height="327.19699188213457" width="1.6" x="918.4" y="360.62519255470204"></rect><rect height="127.61230694604411" width="1.6" x="920" y="233.01288560865794"></rect><rect height="273.9678401427184" width="1.6" x="921.6" y="360.62519255470204"></rect><rect height="271.5418189330071" width="1.6" x="923.2" y="360.62519255470204"></rect><rect height="302.5536277710264" width="1.6" x="924.8" y="58.071564783675626"></rect><rect height="132.8059468239324" width="1.6" x="926.4" y="360.62519255470204"></rect><rect height="342.1819781605689" width="1.6" x="928" y="18.443214394133122"></rect><rect height="213.92842128480038" width="1.6" x="929.6" y="360.62519255470204"></rect><rect height="328.0613070652222" width="1.6" x="931.2" y="32.563885489479844"></rect><rect height="78.59012737160013" width="1.6" x="932.8" y="282.0350651831019"></rect><rect height="318.4545203981888" width="1.6" x="934.4" y="42.17067215651326"></rect><rect height="120.10483043468977" width="1.6" x="936" y="240.52036212001227"></rect><rect height="56.70395751009439" width="1.6" x="937.6" y="303.92123504460767"></rect><rect height="197.5687054060118" width="1.6" x="939.2" y="163.05648714869025"></rect><rect height="21.65751375843029" width="1.6" x="940.8" y="360.62519255470204"></rect><rect height="174.3777253774067" width="1.6" x="942.4" y="186.24746717729533"></rect><rect height="232.17030523653145" width="1.6" x="944" y="360.62519255470204"></rect><rect height="180.2629938211356" width="1.6" x="945.6" y="180.36219873356643"></rect><rect height="25.94805737739184" width="1.6" x="947.2" y="360.62519255470204"></rect><rect height="40.254341546980775" width="1.6" x="948.8" y="320.3708510077213"></rect><rect height="26.34878825994446" width="1.6" x="950.4" y="360.62519255470204"></rect><rect height="326.49474651587064" width="1.6" x="952" y="360.62519255470204"></rect><rect height="84.68071420297912" width="1.6" x="953.6" y="275.9444783517229"></rect><rect height="192.1853794097499" width="1.6" x="955.2" y="168.43981314495213"></rect><rect height="114.91980799936941" width="1.6" x="956.8" y="360.62519255470204"></rect><rect height="301.6774692412036" width="1.6" x="958.4" y="360.62519255470204"></rect><rect height="336.57601839732246" width="1.6" x="960" y="24.049174157379582"></rect><rect height="151.9775726171098" width="1.6" x="961.6" y="208.64761993759225"></rect><rect height="321.0956421398811" width="1.6" x="963.2" y="39.52955041482096"></rect><rect height="13.634097273774051" width="1.6" x="964.8" y="346.991095280928"></rect><rect height="353.26334297388" width="1.6" x="966.4" y="7.361849580822025"></rect><rect height="305.8083275744574" width="1.6" x="968" y="54.816864980244645"></rect><rect height="254.72656475309893" width="1.6" x="969.6" y="105.89862780160311"></rect><rect height="88.8722621921249" width="1.6" x="971.2" y="271.75293036257716"></rect><rect height="267.3723774756785" width="1.6" x="972.8" y="360.62519255470204"></rect><rect height="310.57698095173595" width="1.6" x="974.4" y="360.62519255470204"></rect><rect height="27.11185614542836" width="1.6" x="976" y="360.62519255470204"></rect><rect height="216.95194352735965" width="1.6" x="977.6" y="143.6732490273424"></rect><rect height="227.3569547796406" width="1.6" x="979.2" y="360.62519255470204"></rect><rect height="241.48707988098138" width="1.6" x="980.8" y="119.13811267372066"></rect><rect height="326.69104964926476" width="1.6" x="982.4" y="33.934142905437284"></rect><rect height="21.969179983538627" width="1.6" x="984" y="338.6560125711634"></rect><rect height="79.63514850933949" width="1.6" x="985.6" y="280.99004404536254"></rect><rect height="311.2407370359697" width="1.6" x="987.2" y="360.62519255470204"></rect><rect height="177.8504227854764" width="1.6" x="988.8" y="360.62519255470204"></rect><rect height="125.71747765373408" width="1.6" x="990.4" y="234.90771490096796"></rect><rect height="59.69590614229784" width="1.6" x="992" y="360.62519255470204"></rect><rect height="40.7880469726984" width="1.6" x="993.6" y="319.83714558200364"></rect><rect height="346.96722595167853" width="1.6" x="995.2" y="13.65796660302351"></rect><rect height="143.58852702351177" width="1.6" x="996.8" y="217.03666553119027"></rect><rect height="348.1794554833219" width="1.6" x="998.4" y="360.62519255470204"></rect><rect height="314.940354119123" width="1.6" x="1000" y="360.62519255470204"></rect><rect height="131.95032006426916" width="1.6" x="1001.6" y="360.62519255470204"></rect><rect height="152.14517387538135" width="1.6" x="1003.2" y="208.4800186793207"></rect><rect height="326.0511122523685" width="1.6" x="1004.8" y="360.62519255470204"></rect><rect height="350.06725922944963" width="1.6" x="1006.4" y="10.557933325252407"></rect><rect height="28.733442783573093" width="1.6" x="1008" y="360.62519255470204"></rect><rect height="138.8523811034867" width="1.6" x="1009.6" y="360.62519255470204"></rect><rect height="326.11495169485204" width="1.6" x="1011.2" y="34.51024085985"></rect><rect height="178.76397354118396" width="1.6" x="1012.8" y="181.86121901351808"></rect><rect height="135.1418194152613" width="1.6" x="1014.4" y="360.62519255470204"></rect><rect height="232.69638000687843" width="1.6" x="1016" y="360.62519255470204"></rect><rect height="244.62325009899908" width="1.6" x="1017.6" y="116.00194245570296"></rect><rect height="107.07750764735769" width="1.6" x="1019.2" y="360.62519255470204"></rect><rect height="216.64461949098097" width="1.6" x="1020.8" y="143.98057306372107"></rect><rect height="324.9804240470776" width="1.6" x="1022.4" y="360.62519255470204"></rect><rect height="330.5798159731895" width="1.6" x="1024" y="30.045376581512528"></rect><rect height="243.9271756603364" width="1.6" x="1025.6" y="116.69801689436565"></rect><rect height="120.29922456686127" width="1.6" x="1027.2" y="360.62519255470204"></rect><rect height="302.06526222191036" width="1.6" x="1028.8" y="360.62519255470204"></rect><rect height="289.2634737711465" width="1.6" x="1030.4" y="71.36171878355555"></rect><rect height="188.88598352353486" width="1.6" x="1032" y="360.62519255470204"></rect><rect height="132.0740589742496" width="1.6" x="1033.6" y="228.55113358045244"></rect><rect height="352.9566718823452" width="1.6" x="1035.2" y="360.62519255470204"></rect><rect height="33.92099499367006" width="1.6" x="1036.8" y="326.704197561032"></rect><rect height="54.0162469571105" width="1.6" x="1038.4" y="306.6089455975915"></rect><rect height="175.0135227947557" width="1.6" x="1040" y="185.61166975994635"></rect><rect height="43.01898596690065" width="1.6" x="1041.6" y="360.62519255470204"></rect><rect height="86.78806280484599" width="1.6" x="1043.2" y="273.83712974985605"></rect><rect height="183.50976382163924" width="1.6" x="1044.8" y="177.1154287330628"></rect><rect height="27.51824293390782" width="1.6" x="1046.4" y="360.62519255470204"></rect><rect height="55.16008180640051" width="1.6" x="1048" y="360.62519255470204"></rect><rect height="104.52224845309823" width="1.6" x="1049.6" y="256.10294410160384"></rect><rect height="225.3389071572359" width="1.6" x="1051.2" y="135.28628539746614"></rect><rect height="12.251535213602242" width="1.6" x="1052.8" y="348.3736573410998"></rect><rect height="263.08839165177415" width="1.6" x="1054.4" y="360.62519255470204"></rect><rect height="327.8110763361567" width="1.6" x="1056" y="360.62519255470204"></rect><rect height="214.15899737649823" width="1.6" x="1057.6" y="146.4661951782038"></rect><rect height="270.6562153945557" width="1.6" x="1059.2" y="360.62519255470204"></rect><rect height="192.06294858131784" width="1.6" x="1060.8" y="168.5622439733842"></rect><rect height="284.278726696903" width="1.6" x="1062.4" y="360.62519255470204"></rect><rect height="170.24442789716556" width="1.6" x="1064" y="190.38076465753647"></rect><rect height="209.71739974077346" width="1.6" x="1065.6" y="150.90779281392858"></rect><rect height="319.7545224015929" width="1.6" x="1067.2" y="40.87067015310913"></rect><rect height="0.12579119756947996" width="1.6" x="1068.8" y="360.49940135713257"></rect><rect height="38.41846375805141" width="1.6" x="1070.4" y="322.2067287966506"></rect><rect height="107.73308446604901" width="1.6" x="1072" y="252.89210808865303"></rect><rect height="313.2702049393267" width="1.6" x="1073.6" y="47.354987615375364"></rect><rect height="234.38419147109286" width="1.6" x="1075.2" y="360.62519255470204"></rect><rect height="0.4517368834683226" width="1.6" x="1076.8" y="360.62519255470204"></rect><rect height="22.945201433622593" width="1.6" x="1078.4" y="337.67999112107947"></rect><rect height="60.06005297984803" width="1.6" x="1080" y="300.565139574854"></rect><rect height="61.65078620520131" width="1.6" x="1081.6" y="360.62519255470204"></rect><rect height="109.8685418682262" width="1.6" x="1083.2" y="250.75665068647584"></rect><rect height="219.78549112697306" width="1.6" x="1084.8" y="140.83970142772898"></rect><rect height="35.331078030812456" width="1.6" x="1086.4" y="360.62519255470204"></rect><rect height="351.491416896467" width="1.6" x="1088" y="360.62519255470204"></rect><rect height="139.5495540215776" width="1.6" x="1089.6" y="360.62519255470204"></rect><rect height="41.8770137472523" width="1.6" x="1091.2" y="318.74817880744973"></rect><rect height="289.81761946991634" width="1.6" x="1092.8" y="70.8075730847857"></rect><rect height="108.07957598233693" width="1.6" x="1094.4" y="252.5456165723651"></rect><rect height="89.31624899871852" width="1.6" x="1096" y="271.30894355598355"></rect><rect height="167.8535544413835" width="1.6" x="1097.6" y="192.77163811331855"></rect><rect height="322.79629595363673" width="1.6" x="1099.2" y="37.82889660106531"></rect><rect height="129.8990797861144" width="1.6" x="1100.8" y="230.72611276858763"></rect><rect height="166.02473170318336" width="1.6" x="1102.4" y="194.60046085151868"></rect><rect height="132.3565004097364" width="1.6" x="1104" y="360.62519255470204"></rect><rect height="6.683009166143956" width="1.6" x="1105.6" y="353.9421833885581"></rect><rect height="212.5461510208097" width="1.6" x="1107.2" y="148.07904153389234"></rect><rect height="59.99394180793015" width="1.6" x="1108.8" y="300.6312507467719"></rect><rect height="259.43991688894926" width="1.6" x="1110.4" y="101.18527566575278"></rect><rect height="94.4844467343404" width="1.6" x="1112" y="360.62519255470204"></rect><rect height="221.24313386260857" width="1.6" x="1113.6" y="360.62519255470204"></rect><rect height="147.32783733338076" width="1.6" x="1115.2" y="360.62519255470204"></rect><rect height="264.688146607508" width="1.6" x="1116.8" y="360.62519255470204"></rect><rect height="0.16154456664111275" width="1.6" x="1118.4" y="360.4636479880609"></rect><rect height="212.560769441633" width="1.6" x="1120" y="360.62519255470204"></rect><rect height="148.87128544981167" width="1.6" x="1121.6" y="360.62519255470204"></rect><rect height="332.55761403374595" width="1.6" x="1123.2" y="28.06757852095609"></rect><rect height="114.50761049427322" width="1.6" x="1124.8" y="246.11758206042882"></rect><rect height="36.85787273393149" width="1.6" x="1126.4" y="323.7673198207706"></rect><rect height="93.98849391712373" width="1.6" x="1128" y="266.6366986375783"></rect><rect height="262.28495925949437" width="1.6" x="1129.6" y="98.34023329520767"></rect><rect height="306.02352040716914" width="1.6" x="1131.2" y="360.62519255470204"></rect><rect height="209.34790093197853" width="1.6" x="1132.8" y="151.2772916227235"></rect><rect height="344.88369259870166" width="1.6" x="1134.4" y="360.62519255470204"></rect><rect height="38.27113025231905" width="1.6" x="1136" y="360.62519255470204"></rect><rect height="256.52032277332484" width="1.6" x="1137.6" y="104.1048697813772"></rect><rect height="239.79679050205343" width="1.6" x="1139.2" y="120.82840205264861"></rect><rect height="134.8197759011201" width="1.6" x="1140.8" y="225.80541665358194"></rect><rect height="261.6547345048482" width="1.6" x="1142.4" y="360.62519255470204"></rect><rect height="224.35266343732198" width="1.6" x="1144" y="360.62519255470204"></rect><rect height="200.82155346474852" width="1.6" x="1145.6" y="159.80363908995352"></rect><rect height="248.3481175334958" width="1.6" x="1147.2" y="112.27707502120623"></rect><rect height="226.8534515596141" width="1.6" x="1148.8" y="360.62519255470204"></rect><rect height="260.42888165779914" width="1.6" x="1150.4" y="100.1963108969029"></rect><rect height="197.33069733663834" width="1.6" x="1152" y="163.2944952180637"></rect><rect height="257.5769491114177" width="1.6" x="1153.6" y="103.04824344328432"></rect><rect height="109.89275450684941" width="1.6" x="1155.2" y="250.7324380478526"></rect><rect height="30.628994967038548" width="1.6" x="1156.8" y="329.9961975876635"></rect><rect height="359.0067223748778" width="1.6" x="1158.4" y="360.62519255470204"></rect><rect height="138.19652900458993" width="1.6" x="1160" y="360.62519255470204"></rect><rect height="55.41247689315636" width="1.6" x="1161.6" y="360.62519255470204"></rect><rect height="124.51063563132604" width="1.6" x="1163.2" y="360.62519255470204"></rect><rect height="46.46278434414722" width="1.6" x="1164.8" y="360.62519255470204"></rect><rect height="350.20708553358196" width="1.6" x="1166.4" y="10.418107021120079"></rect><rect height="231.99259118986342" width="1.6" x="1168" y="360.62519255470204"></rect><rect height="35.16441078401512" width="1.6" x="1169.6" y="325.46078177068694"></rect><rect height="51.96971867850503" width="1.6" x="1171.2" y="360.62519255470204"></rect><rect height="95.32294459294219" width="1.6" x="1172.8" y="265.30224796175986"></rect><rect height="90.97478468731974" width="1.6" x="1174.4" y="269.6504078673823"></rect><rect height="71.52899866297926" width="1.6" x="1176" y="360.62519255470204"></rect><rect height="250.57536204836606" width="1.6" x="1177.6" y="110.04983050633598"></rect><rect height="59.77243847856346" width="1.6" x="1179.2" y="300.8527540761386"></rect><rect height="178.74789850778637" width="1.6" x="1180.8" y="360.62519255470204"></rect><rect height="291.1777639089939" width="1.6" x="1182.4" y="360.62519255470204"></rect><rect height="313.98313157565" width="1.6" x="1184" y="46.64206097905202"></rect><rect height="226.55978544127157" width="1.6" x="1185.6" y="134.06540711343047"></rect><rect height="138.6990364834123" width="1.6" x="1187.2" y="360.62519255470204"></rect><rect height="158.07877702651123" width="1.6" x="1188.8" y="360.62519255470204"></rect><rect height="177.9035550370067" width="1.6" x="1190.4" y="182.72163751769534"></rect><rect height="195.9039970203806" width="1.6" x="1192" y="164.72119553432145"></rect><rect height="157.22197286617205" width="1.6" x="1193.6" y="203.40321968853"></rect><rect height="202.74811185262206" width="1.6" x="1195.2" y="360.62519255470204"></rect><rect height="86.9119456799928" width="1.6" x="1196.8" y="273.7132468747092"></rect><rect height="107.85407637163217" width="1.6" x="1198.4" y="360.62519255470204"></rect><rect height="246.8124719259572" width="1.6" x="1200" y="360.62519255470204"></rect><rect height="241.3721416888651" width="1.6" x="1201.6" y="119.25305086583694"></rect><rect height="225.36517952768722" width="1.6" x="1203.2" y="135.26001302701482"></rect><rect height="173.21121478909788" width="1.6" x="1204.8" y="187.41397776560416"></rect><rect height="56.63810276617625" width="1.6" x="1206.4" y="303.9870897885258"></rect><rect height="352.74819270278806" width="1.6" x="1208" y="360.62519255470204"></rect><rect height="280.51020421107216" width="1.6" x="1209.6" y="360.62519255470204"></rect><rect height="35.31119926307694" width="1.6" x="1211.2" y="360.62519255470204"></rect><rect height="334.8316843025527" width="1.6" x="1212.8" y="360.62519255470204"></rect><rect height="159.12020658074064" width="1.6" x="1214.4" y="201.5049859739614"></rect><rect height="360.62519255470204" width="1.6" x="1216" y="0.0"></rect><rect height="185.03530336351585" width="1.6" x="1217.6" y="175.5898891911862"></rect><rect height="248.10504409663457" width="1.6" x="1219.2" y="112.52014845806747"></rect><rect height="71.69576555396932" width="1.6" x="1220.8" y="360.62519255470204"></rect><rect height="106.34260484337715" width="1.6" x="1222.4" y="254.28258771132488"></rect><rect height="296.7725284865531" width="1.6" x="1224" y="63.852664068148954"></rect><rect height="109.84379491350248" width="1.6" x="1225.6" y="250.78139764119956"></rect><rect height="190.26123403541666" width="1.6" x="1227.2" y="170.36395851928538"></rect><rect height="265.99355473788313" width="1.6" x="1228.8" y="94.63163781681891"></rect><rect height="352.495802624916" width="1.6" x="1230.4" y="360.62519255470204"></rect><rect height="139.03324467663498" width="1.6" x="1232" y="360.62519255470204"></rect><rect height="79.05170265184658" width="1.6" x="1233.6" y="281.57348990285544"></rect><rect height="312.94636311260854" width="1.6" x="1235.2" y="47.6788294420935"></rect><rect height="316.0543454803838" width="1.6" x="1236.8" y="360.62519255470204"></rect><rect height="357.87134513169735" width="1.6" x="1238.4" y="2.753847423004686"></rect><rect height="25.238292664541504" width="1.6" x="1240" y="335.3868998901605"></rect><rect height="339.0104677128821" width="1.6" x="1241.6" y="360.62519255470204"></rect><rect height="245.1517568198869" width="1.6" x="1243.2" y="115.47343573481513"></rect><rect height="29.50252729394008" width="1.6" x="1244.8" y="360.62519255470204"></rect><rect height="61.50767936025454" width="1.6" x="1246.4" y="360.62519255470204"></rect><rect height="342.5374665333318" width="1.6" x="1248" y="360.62519255470204"></rect><rect height="32.00751691706342" width="1.6" x="1249.6" y="360.62519255470204"></rect><rect height="241.56213090424157" width="1.6" x="1251.2" y="119.06306165046047"></rect><rect height="91.03956401107406" width="1.6" x="1252.8" y="360.62519255470204"></rect><rect height="293.4390008187267" width="1.6" x="1254.4" y="360.62519255470204"></rect><rect height="299.8123041582203" width="1.6" x="1256" y="360.62519255470204"></rect><rect height="331.4907018646972" width="1.6" x="1257.6" y="29.13449069000484"></rect><rect height="34.99164611275287" width="1.6" x="1259.2" y="325.6335464419492"></rect><rect height="175.95985445939493" width="1.6" x="1260.8" y="184.6653380953071"></rect><rect height="229.39369133135352" width="1.6" x="1262.4" y="360.62519255470204"></rect><rect height="249.1745520978052" width="1.6" x="1264" y="111.45064045689685"></rect><rect height="132.3781473187996" width="1.6" x="1265.6" y="360.62519255470204"></rect><rect height="167.18964145024452" width="1.6" x="1267.2" y="193.43555110445752"></rect><rect height="125.04651336450941" width="1.6" x="1268.8" y="235.57867919019264"></rect><rect height="88.89150790227222" width="1.6" x="1270.4" y="360.62519255470204"></rect><rect height="242.51841050297045" width="1.6" x="1272" y="118.10678205173159"></rect><rect height="95.96311848485823" width="1.6" x="1273.6" y="360.62519255470204"></rect><rect height="359.37480744529796" width="1.6" x="1275.2" y="360.62519255470204"></rect><rect height="222.696414054268" width="1.6" x="1276.8" y="360.62519255470204"></rect><rect height="114.15794518904262" width="1.6" x="1278.4" y="246.46724736565943"></rect></g></svg>